<svg xmlns="http://www.w3.org/2000/svg" xmlns:xlink="http://www.w3.org/1999/xlink" version="1.1" x="0px" y="0px" viewBox="0 0 91 91" style="enable-background:new 0 0 91 91;" xml:space="preserve"><g><path d="M82.7,55.8c-2-0.3-3.6,0-5.1,0.7c0.3-3,0.5-6,0-8.9c-0.2-0.9-1.2-1.9-1.4-2.1c-7.1-5.2-17.4-5.9-25.9-6.3   c-10.6-0.5-21.4,0-31.7,2.3c-3.5,0.8-14.3,3-12.8,8.6c-0.1,15,8.1,32,22.7,37.6c14.1,5.4,31,1.6,40.5-9.9c0.3,0,0.6,0.1,0.9,0   c7.2-1.1,17.3-6.1,18.4-14.3C88.5,59.9,86.5,56.3,82.7,55.8z M20.1,45.3c9.1-1.9,18.5-2.4,27.7-2.3c8.3,0.1,18.7,0.4,26.1,4.9   c0.8,0.6-0.8,1.9-2.5,2.5c-9.6-2.4-19.6-3.1-29.4-3c-9.8,0.1-19.7,0.9-29,4.2c0,0-0.1,0-0.1,0.1c-0.9-0.4-1.7-1-2.5-1.6   c-0.3-0.2-0.8-0.8-0.3-1.3c0.3-0.2,0.5-0.4,0.8-0.6C13.7,46.6,17.1,45.9,20.1,45.3z M63.2,53.3c-0.2,0.1-0.5,0.1-0.7,0.2   c-7.1,1.9-14.4,2.6-21.7,2.5c-6.9,0-13.8-0.5-20.5-2.1c-0.5-0.1-1.1-0.3-1.7-0.4C33.1,51.3,48.6,50.8,63.2,53.3z M42.8,85.8   c-9.4,0.2-18.3-3.7-24-11.2C14.5,69,11.7,62,10.8,55c0.9,0.4,1.8,0.8,2.7,1.1c5.9,2.3,12.4,3.1,18.6,3.6c9.7,0.8,19.5,0.4,29-1.7   c4-0.9,8.6-2,12.4-4.1c-0.8,6.9-2.7,13.8-6.6,19.5C61.5,81.4,52.3,85.6,42.8,85.8z M81.5,67.7c-2.4,2.6-5.6,3.7-9,4.5   c2-3.7,3.5-7.6,4.4-11.7c1.7-0.9,3.6-1.5,5.3-0.9C86.4,60.9,83.3,65.8,81.5,67.7z"></path><path d="M41.6,22.8c-1.2-0.9-2.7,1.1-1.6,2c1.6,1.4,0.1,2.5-0.7,3.7c-0.7,1-1.4,2-1.5,3.2c-0.3,2.4,1.7,4.2,3.7,5   c1.7,0.7,2.8-2.1,1.2-2.9c-3.4-1.8,0.2-4.1,0.9-6.4C44.3,25.5,43.2,23.9,41.6,22.8z"></path><path d="M40.4,18.8c0.8,0.8,2,1.1,2.9,0c2.9-3.5,9.1-9.2,5.8-14.3c-1.2-1.8-3.4-2.9-5.5-2.4c-1.2,0.3-2.1,1-2.8,1.9   c-1-1.3-2.1-2.5-3.7-2.9c-2.6-0.7-4.6,1.3-5,3.7C31.1,10.9,35.5,15.8,40.4,18.8z M35.7,5.8C37.2,3.9,39,8.1,39.4,9   c0.7,1.5,3.1,1,3.5-0.5c0.3-1,2.1-4.9,2.9-1.2c0.2,1-0.7,2.6-1.2,3.3c-1,1.6-2.5,3-3.8,4.4c-1.6-1.5-3.3-2.9-4.3-4.9   C36.1,9.3,35.1,6.6,35.7,5.8z"></path></g></svg>