<svg id="food" xmlns="http://www.w3.org/2000/svg" viewBox="0 0 91 91"><circle cx="58.6" cy="46.4" r="2"/><circle cx="53.3" cy="52" r="2"/><circle cx="55.5" cy="58" r="2"/><circle cx="61" cy="54.3" r="2"/><path d="M55.4 36.4c-.1-1-.7-1.7-1.4-2-7.2-6.6-10.5-15.7-15.1-24.1-1.7-3.2-4-7.8-7.9-8.5-2.5-.5-5.4-.4-7.9-.4s-3.5 1.3-5.2 3c-1.8 1.9-3.7 3.8-5.8 5.4-1.8 1.3-3 2.3-4 4.3-1.8 3.7-1.3 8 .7 11.6 2.5 4.4 6.7 5.9 11 7.7 3 1.2 5.8 2.8 8.6 4.2 2.7 1.3 6.1 2.5 8.3 4.6 1.8 1.7 2.9 4.2 5.4 5.2 2.1.8 4.5.3 6.5-.6 4.7-1.9 7.1-5.5 6.8-10.4zm-10.7 6.9c-1.5-.2-2-1.5-2.9-2.5-.3-.4-.6-.7-1-1 1.9-2 3.9-3.9 5.5-6.1 1-1.3-1-2.5-2.1-1.6-2.1 1.8-4.2 3.6-6.2 5.5-2.9-1.9-6.3-3-9.4-4.4-2.5-1.1-5-2.3-7.6-3.4s-5.5-1.9-7.4-4.1c-1.8-2.1-3.2-5.4-2.5-8.2.5-2.2 1.8-3.2 3.5-4.4 2-1.5 3.7-3.3 5.3-5.2.7-.9 1.5-2.4 2.5-3.1 1.3-.9 3.1-.4 4.6-.4s3.5-.2 4.8.6c1.2.7 2.2 2.2 3 3.3 1.3 1.8 2.5 3.6 3.6 5.6C42.5 21.1 44.9 30 51 36v.4c.1 2.6-.4 4.1-2.7 5.6-.9.6-2.5 1.5-3.6 1.3z"/><path d="M30.5 9.4c-.2-1.1-1.4-2.1-2.6-1.3-4.6 3.2-8.9 7.4-12 12.1-.5.8-.2 2.1.7 2.5 4.3 2.1 8.6 4.4 12.8 6.7.7.4 1.7.3 2.3-.3 2-2 4.7-4.1 6.1-6.6.3-.6.3-1.3 0-1.9-2.4-3.8-4.7-7.7-7.3-11.2zm-.6 16c-3.2-1.7-6.5-3.4-9.8-5 2.3-3.1 5.2-5.9 8.2-8.2 1.7 3.2 3.6 6.2 5.5 9.3-.9 1.1-2.6 2.7-3.9 3.9zM78.1 16.2c-.4-.6-1.2-.8-1.8-.2-5.1 4.9-9.8 10.6-14.2 16.1-1.2.4-1.4 2.5.1 2.8 5.2.9 11.9 2 16.2-2.3 4.2-4.5 3-11.9-.3-16.4zM64.4 32.4c1.6-1.5 3-3.1 4.5-4.7.1.6.2 1.2.2 1.8.1 1.1.1 2.5.4 3.6-1.7 0-3.5-.3-5.1-.7zm12.5-13.8c.6 1.1 1.1 2.5 1.5 3.8-2 .1-4 .4-5.9 1.1 1.4-1.7 2.9-3.3 4.4-4.9zm-1.1 12.9c-1.2.8-2.4 1.2-3.6 1.5 0-1.2-.4-2.6-.6-3.7-.2-1-.3-2-.5-3 1.8 1.6 4.1 2.8 6.2 4l-1.5 1.2zm2.2-2.7c-1.8-1.4-3.8-2.8-5.9-3.8 2.2-.3 4.4-.4 6.6-.6.1 1.6-.1 3.1-.7 4.4zM63.6 66.5c.5 1.8 2.4 3 4.3 2.4 2.1-.6 2.7-2.8 2.6-4.8-.2-2.4-2.4-2.7-4.5-2.4-2.9.5-2.7 3.6-2.4 4.8zm4.7-1.9c.4.6.3 1.4.2 1.7-.1.5-.8 1-1.4 1.1-1.2.2-2.4-1-2.2-2.1.3-1.5 2.7-1.9 3.4-.7zM41.7 57.3c-1.5-.6-3-.5-4.6-.4-2.9.3-5.3.1-7.7-1.9-1.1-.9-3-.1-2.5 1.5 1.4 4.5 3.7 9 8 11.5 3.4 2 8.9 2.9 11.7-.4.1-.1.1-.2.2-.3.9-.1 1.7-.7 1.3-1.7-1.4-3.3-2.9-6.9-6.4-8.3zM40.1 67c-1.9-.2-3.7-1-5.1-2.3-1.7-1.4-2.9-3.3-3.8-5.3 1.2.4 2.5.7 3.9.6 2 0 4-.9 6 .1 1.1.5 1.8 1.4 2.5 2.4-1.9-.7-3.9-1-6.1-1-2.1 0-1.8 3.3.4 2.9 2.6-.6 5.1.4 7.1 1.9-1.7.3-3.2.8-4.9.7zM87.8 72c-3.2-.4-6.4-.4-9.6-.6-15-.7-30.1-.4-45.1-.1-2.3.1-2.9 2.6-1.8 4-.4 2.6 1.4 6.1 4.1 5.9 2.1-.2 2.8-4.1 4.8-.5.7 1.2.6 2.7 2 3.4 1 .6 2.4.5 3.3-.2 1.3-1 .8-2.6 1.6-3.7.6-.7 3.1-.3 4.2-.8 1.6-.8 1.6-2.2 2.2-3.6h32.6c0 .3-.1.6-.1.7-.5 2-1 4.3-2.1 6-2.2 3.3-6.4 3-9.9 3H41.1c-3 0-5.9.2-8.1-2.1-2.7-2.8-3.2-6.8-3.7-10.4-.2-2.1-3-2.1-3.2 0-.1.7-.1 1.5-.1 2.2-1.2 0-2.5.1-3.7.1-.2-.8-.8-1.5-1.8-2.1-4.1-2.3-15.2-.6-16.7-.2-3.3 1-3.7 5.4-.4 7.5C5.3 82.1 7.6 82 10 82c2.6 0 5.4 0 7.9-.5 1.4-.3 2.7-1.3 3.6-2.5 1.6.1 3.2.3 4.8.2.7 3.8 2.6 7.3 6.1 9.3 3.9 2.3 9.1 1.5 13.5 1.5 9 0 18 .2 27.1.2 3.8 0 7.9.2 11.2-1.9 3.9-2.4 5.3-6.8 6.1-11.1.3-2.6.6-4.8-2.5-5.2zm-42.5 6.4c-.5.7-.5 1.6-.6 2.4s-.1 2.8-1.9 1.9c-.5-.3-.8-1.7-1-2.3-.6-1.7-1.4-3.7-3.7-3.3-1.1.2-1.4 1.1-2.2 1.6-1.4.7-2-.9-2.3-2.5 5.6-.1 11.4-.2 17.2-.2.3 2-4.6 1.2-5.5 2.4zm-28.9 0c-2.2.4-4.6.4-6.8.4-1.3 0-3.3.3-4.5-.5s-.8-1.9-.2-2.2c.9-.7 12.6-1.5 13.4-.1.8 1.4-.5 2.2-1.9 2.4zM78.8 52.7c2.1-3.5 1.4-7.5 2.1-11.4.2-1-.7-2.5-2-2-5.5 2.3-13.7 6.6-11.4 14 .1.3.3.4.6.5-.2.5-.3 1.1-.4 1.6-.3 2.7 2.1 3 4.1 2.5 2.9-.7 5.5-2.7 7-5.2zm-5.9-5.5c-1.3 1.2-2.9 3-4 4.8.3-4.9 3.9-7.8 8.4-9.1-.2 2.2-.1 4.5-.9 6.5-.8 2.2-2.7 4.1-5 4.8.4-.7.9-1.6 1-1.8.7-1.2 1.6-2.2 2.7-3.2 1.5-1.1-.7-3.3-2.2-2z"/></svg>