<svg xmlns="http://www.w3.org/2000/svg" xmlns:serif="http://www.serif.com/" fill-rule="evenodd" stroke-linejoin="round" stroke-miterlimit="1.4" clip-rule="evenodd" viewBox="0 0 1500 1500"><g serif:id="black and white"><path fill="#501936" fill-rule="nonzero" d="M958 1227.3c-4.5 3.2-7.6 8.3-11.9 12-6.1 5.3-17.7 2-20.5-5.6-2.8-8-5-16.2-7.7-24.3-2.1-6.4-4.5-12.8-6.8-19.1l-1.8.6 15.5 48a22.8 22.8 0 0 0-9-2.4h-.2a12.4 12.4 0 0 0-5 1.2 14 14 0 0 0-4.3 3.1l-.2.3a20 20 0 0 0-2.3 3.1 30 30 0 0 0-1.1 1.9l-.3.5c-.4 6.8-3 11-10.6 12.7a62.5 62.5 0 0 0-27.5 11.3c-1 .9-2.9 1-4.3 1.2l-23.3 2.2c-6.8-8.7-6.6-21-9.6-32.4l-6-22.2.2 2.9c.3 2.9.6 5.7 1.2 8.5 2.5 11.9 5.2 23.7 7.8 35.5.5 2 .8 4.1 1.4 6.1 1.6 4.8-.5 6.5-5 6.3-2 0-4.1 0-5.7.8-7.5 3.9-12.7 1-17.4-5-5.2-6.4-11.4-12.3-10.6-21.7 0-.4-.5-1-2.3-1.2l1.7 13.7c-8.1-5.2-12 .5-15.2 5.6-3.5 5.6-9.1 7.3-14.4 8.6-17.6 4.3-24 1.9-36-11.6-6.3 4.3-12.5 8.8-19 12.8-2 1.2-5 2-7.3 1.5-8.8-1.7-17.6-3.6-26.3-6.2-2.1-.6-3.7-3.6-5.2-5.7-4.1-5.5-7.9-11.2-12.1-16.6-.6-.8-3.6-.7-4.7.1a201 201 0 0 0-12.6 10.8c-2.2 1.9-4.2 4-6 6.2-2.5 3.3-5.6 2.6-8.2.9-2.8-1.9-6.6-3.2-4.8-8.4 4.8-14.4 9-29 13.5-43.6 1.2-3.9 2-8 3.5-11.6.7-1.6 3-2.5 4.6-3.8.4 2 1.8 4.3 1.2 6-3.9 11.7-8.1 23.3-12.2 35-2 5.4-3.7 10.9-5.6 16.4l2.4.7 18.7-54.9c.1 16.9-8 31.8-11.2 47.8l2 .6 13.5-46.4c4.1 1.8 5.2 4.3 4 8l-8.8 27.6-1.3 5.1 2 .7c1.6-4.1 3.4-8.2 4.6-12.4 2.2-7.4 4-14.9 6-22.3s2.6-7.6 10-3.7c-2.3 11.4-8.4 22-8.8 33.9l2 .6 10.3-34.6c.8 0 1.5-.2 2.2-.3.6 1.8 1.8 3.7 1.6 5.4-1.2 9.1-2.8 18.3-4 27.4a13 13 0 0 0 1.5 7.7l4.3-31.2c.1-1.1 0-2.5.7-3.3 1.1-1.4 2.7-2.4 4-3.6.9 1.7 2.6 3.5 2.4 5-1.8 11.7-4 23.2-5.9 34.8-.7 5.2-.8 10.5-1.2 15.7l1.6.2 2.7-17.6c1.7-10.5 3.2-21 5-31.4.4-1.7 2.4-4.2 3.7-4.3 3.3 0 3.7 2.5 3.3 5.4-2 13.8-4 27.5-5.8 41.3-.4 3.6-.4 7.2-.6 10.8l1.7.2c.3-1 .8-2 1-3l6-49.9c.2-1 1.7-2 2.5-3 .7 1.1 2 2.4 1.8 3.5-1.2 13.8-2.6 27.6-4 41.4l-.8 12 1.5.2c.7-4.7 1.5-9.5 2-14.3 1.2-11.9 2.5-23.8 3.5-35.7.4-5.3 3.7-6.8 8-7 4.2-.3 8.5-.3 12.7.4 1.5.2 3.7 2.7 3.8 4.3.2 10-.2 20-.3 30 0 3.7 0 7.5 1.4 11.4.3-.9.8-1.8.8-2.7l.3-36.4c0-4.9.5-8.5 6.8-5.9.6.3 1.5.3 2.2 0 5.7-1.5 6.3 2 6.1 6.1-.3 7.7-1 15.5-1 23.2.2 7 1.1 14.2 1.8 21.3a7.7 7.7 0 0 0 2.4 4.4l-1.2-25.9c-.3-8.3-.7-16.5-.8-24.8 0-1.7 1.8-3.3 2.7-5 1 1.7 3 3.4 3 5.1 1 13.3 1.5 26.6 2.3 39.9.3 3.3 1.4 6.5 3.2 9.4l-3.4-49.9c-.2-3.3.1-5.6 4.3-5.8 4.2-.1 5.4 1.7 5.3 5.5v37.1c0 2 .8 4.2 1.3 6.2l1.4-.2v-48.4l6.6-.3v42h1.8v-29c0-.9-.3-1.6-.3-2.4-1-10.8-.6-11.2 9.7-12.6 4.1-.6 6.1.5 6.2 5 .1 7.8.7 15.5 1.2 23.2 0 1.2.5 2.3.7 3.5l1.6-.1c-.4-5.6-.4-11.3-1.3-16.8-2.8-19-1.6-15.8 13-17.8 4.6-.7 6 .7 7 4.9 1.3 6 2.6 12.2 5.4 17.5 5 9 3.3 19.1 6.2 28.4.3 1 .8 2 2.7 3.3.4-1.7 1.4-3.5 1-5-3-14.6-6.3-29-9.7-43.5-.5-1.9-2.1-3.4-3.9-6h8.4c5.2-.8 10.5-1.5 15.7-2.4 1.5-.3 2.8-1.4 4.3-1.8 3-.8 6.1-2 9.1-1.8 1 0 2.3 3.5 2.8 5.6l9.4 38.2c.5 2.2 2 4 3.1 6l2.1-.8-13.2-48 5.4-2.6 15.1 50.6 2.7-.6c-.4-2.1-.6-4.3-1.2-6.3-4.5-13.7-9.1-27.4-13.4-41.2-.5-1.4.7-3.2 1.2-4.9l3.4 1 2.2-1.5 6-4h-.1v.1c12-4.1 23.1-10.9 38-11.2 8.4 13.3 10.9 31.6 20.3 46.5l1.5-.7-19.3-48 1.1-1.7c1.6.8 4.1 1.2 4.6 2.4 3.9 9.8 7.3 19.8 11 29.7 1.4 3.6 3 7 5 11.3 1.1-1.7 1.6-2.1 1.5-2.3l-13.8-35.4c-.5-1.4-1.5-2.9-1.5-4.3 0-1.2 1-2.4 1.7-3.6 1.1.6 3 1 3.3 2 3 7 5.4 14 8.2 21 2.4 5.7 5 11.3 7.6 17l1.8-.7c-.2-1.1-.2-2.3-.6-3.3l-14-31.8c-.5-1.4-1.3-3.1-.9-4.4.3-1 2.4-2.7 3.2-2.4 1.5.4 3 1.8 3.7 3.2l12 29.4c.6 1.6 2 2.8 3 4.3l1.7-1-16.4-36.7c5.8-3.5 6.8-3 8.9 3a917 917 0 0 0 10.7 29.4c1 2.7 3 5 4.5 7.4l1.5-.8-17-42.4 1.3-1.7c2.2 1.4 5.3 2.2 6.4 4.2 6.3 11.8 12.2 24 18.3 36l3 5.1c-6 3.2-12.5 5.8-18 9.8M618 1261.4c-.3 1-1 1.9-1.4 2.8l-1.5-.4 16.2-60.6-1.4-.5-18 59-5.3-2.3v.1c-4.3-1.4-6.5-3.6-6.5-7.2v-.9c0-1 .3-2 .7-3.2 3.8-11.9 7.2-24 10.7-36l2-7.2c-.5-.2-1-.4-1.7-.5l-15.4 49.9c-8.7-2.8-17.4-5.6-26.1-8.6-1-.3-1.8-1.9-2.5-3-4.7-8.2-9.2-16.5-14.4-24.4-1.1-1.7-5.3-3.2-7.2-2.5-11.6 4.3-21.2-1.3-31.4-5.1-5.4-2-8.4-5.6-11.2-10-3.7-6-9-9.3-16.2-9H476l22.8-46.6c6.7 1.2 7.7 4.2 5 8.8l-13.9 23.3c-1.1 2-1.8 4.3-2.6 6.4l1.8.9 19.7-35 2.1 1c-1.1 3-2 6-3.4 8.7-4.4 8-9.2 15.7-13.6 23.6-1 1.8-1.4 4-2 6l1.6.7 20-37.1c3.2 1.3 6.5 2.4 9.4 4.1.7.4.7 3.2 0 4.5-4 8.5-8.2 17-12.4 25.4l-4 8.5 1.8.9c1.1-1.8 2.5-3.6 3.4-5.5 4-8.6 7.7-17.3 11.8-25.8 1-2 3-3.4 4.6-5 0 2.4.5 5-.4 7.1-3.5 8.2-7.4 16-11.1 24.2-1.1 2.5-1.9 5.2-2.8 7.9l1.6.7c2.6-5.6 5.3-11 7.8-16.6 2.5-5.7 4.7-11.5 7-17.2 1.2-3.1 2.9-3.8 6.2-2.2 6.5 3.2 13.2 6.4 20 8.6 4.9 1.6 5 3.8 3.2 7.7-4 8.5-8 17.1-11.8 25.8-1 2.3-1.5 4.8-2.2 7.3l1.5.5 17.5-37.6 2.3.9c1.5 5.2-1.9 9.6-3.2 14.3-2 6.6-4.9 13-7.1 19.5a6 6 0 0 0 .7 5l13-37.4c4.1 1.6 7.6 2.7 10.8 4.4.8.4 1.3 3 .9 4.4-4 12.2-8.4 24.4-12.4 36.6-1 2.8-1.3 5.7-2 8.5l2.4.8c1.4-3 3-6 4-9.2 2.4-7.7 4.4-15.5 6.6-23.3 1-3.5 1.6-7.1 3-10.5.7-1.9 2.5-3.3 3.9-5 .3 2.1 1.4 4.4.8 6.1-4.4 14.6-9 29.1-13.7 43.6-.6 1.8-1 3.5-.5 5.6 8.9-16.5 12.4-34.9 18-52.4 5.6.1 5.6 3.1 4.3 6.6l-12 31.4c-2.2 5.8-4.2 11.7-6.8 19 2.2-1.2 3-1.3 3.1-1.7l17.5-47.7c.1-.4.1-.9.4-1.1l4.1-3.7c.4 2 1.7 4.2 1.2 6-1.6 5.2-3.9 10.4-5.9 15.6l-10.4 28.2c-.5 1.3-.6 2.8-1 4.2l1.9.6 18.7-51.8 12.4 3c3.7.9 4.5 3 3.4 6.4-5.1 15.8-10.2 31.6-15 47.4-1 3-1 6.2-1.3 9.3l1.2-2.9c2.8-7 5.8-14 8.1-21.1 3.3-10.3 5.8-20.8 8.6-31.2.9-3.3 1.8-6 6.3-4 3.4 1.5 6.8 1.8 4.9 7.4-6.2 17.8-11.8 35.9-17.7 53.8m-147.6-85.7a24.2 24.2 0 0 0-7.5-15 9.4 9.4 0 0 0-6-2.4c-7.5-.3-15 0-22.5-.1-1.1 0-2.5 0-3.3-.7-11.2-7.4-23-14.2-33.3-22.7-4.8-4-8.2-10.9-9.8-17.1-3-11.4-10.3-16.4-20.9-18.9-3.9-.9-7.8-3.2-10.8-5.9a36 36 0 0 1-12.8-30.1c.5-10.7-3.6-19.4-15.1-22.4-7.4-2-11.6-5.8-10.8-14.3a52 52 0 0 0-1-15.6c-5-23-15-42.8-35.2-56.2-6-4-9.8-8.6-7.6-16.7 1-3.7 2.9-4.8 5.5-6.4 10.7-6.5 21.3-13.3 32-19.6a5 5 0 0 1 2.2-.6h4.3l-.8 1.6c-.7 1.8-1.4 3.6-2.7 4.4-7.4 4.5-15.1 8.5-22.7 12.7-2 1-3.6 2.5-5.5 3.7l1 1.5 32.2-17.9c2.3 4.7 1.4 7-2.8 8.8-7.6 3.3-14.9 7.3-22.3 11-1.4.8-2.5 2-3.8 3l.7 1.3 31.1-15.4c1.4 5.7-1.8 6.7-4.7 8.2-7.6 4-15.2 8.3-22.7 12.5-1 .6-1.9 1.8-2.2 3.7l9.8-5-3.2 5.3c9.8-5 17.6-12.4 27.8-15-6.9 10.8-20.8 13-27.2 24.2l27.9-18.9c4 2.8 4.2 5.1.5 7.4-5.5 3.3-11 6.6-16.3 10-1.8 1-3.4 2.3-5 3.5l.8 1.3 13.4-7.7c2.7-1.6 5.3-3.3 8.1-4.5 1.4-.6 3.1-.2 4.7-.2-.6 1.5-.8 3.7-2 4.6-4.8 3.6-9.9 6.7-14.8 10l-7.9 6 1 1.4c7.4-4.8 14.6-9.8 22-14.4 1.4-.8 3.4-.5 5.2-.4h.8l-.5 2.3c-.3 1.3-.6 2.6-1.4 3.3-4.7 4-9.8 7.4-14.7 11l-3.3 2.8 1.2 1.6 20.6-14 2 3.3 5.9 9.3-26.4 17 1.5 2.3c8.3-6 16.7-11.8 25-17.7 1.7 1.8 2.6 3.3-.3 5a16.6 16.6 0 0 0-6.2 6l10.2-5.3 1.2 1.1c-.8 1.4-1.3 3.3-2.5 4.2-8.3 6-16.7 11.6-25 17.5-1.4 1-2.5 2.5-3.8 3.8l1 1.3 31.4-21.7 1.2 1.5-13.2 11.6.8 1.1 14.8-9.8 1.8 1.2-2.9 7.5 5.5-.7 2-.3c-.3.4-.4.9-.6 1.3l-1 2.4-2.2 5.1 7.6-1.3-.6 4.4 8 5c-10.5 9.8-21.6 16.9-29 27.6l1 1 28.8-26 2 1.6-2.7 6 5.6-2.5 15.8 22-.2.3.2-.2 3 3.2c3.8 3.5 6.4 7 1.1 11.5l-.1.2-.3.6c0 .5 0 1.2-.2 1.7 1.3-.8 2.4-1.8 3.8-2.4 1.2-.6 2.6-.6 3.9-.8-.4 1.3-.4 3-1.2 3.9-7 7.4-14.3 14.6-21.4 22-1.4 1.4-2.5 3-3.8 4.7l1 1c1-.5 2-1 2.7-1.7 6.4-6.8 12.5-13.7 19-20.4 2.2-2.2 5-3.8 8.3-4.9-4.6 12.7-17.7 18.4-23.2 30.2l26.4-25.9 2 .9c-.5 1.8-.5 4-1.5 5.3-5.6 6.9-11.5 13.5-17.2 20.3a20.2 20.2 0 0 0-4 7.5l25.5-28.2 2 1.5c-.5 10.7-12.3 14.7-16 23.6l1.2 1c4.3-4.9 8.5-9.9 13-14.6 1.9-2 4.4-3.4 6.6-5l-.6 8.8v2.5l6.7-6.2v9.5l5-3a13651.4 13651.4 0 0 1-1 6.4l4.8-1.7c3.3 4.2 1 7.6-1 11l-3.6 6.5 1.4-1.7c1.7-2.2 3.4-4.4 5.3-6.4.6-.7 1.4-1.2 2.2-1.7l2.5-1.5.1 2.8.1 2.7-.2 1.3v.3l4.5-4.1 3.5 4.2c3.7 1.1 4.2 3.3 2.1 6.5l-15.8 23.5c-1 1.5-1.8 3-2.7 4.6l1.6 1c3.5-4.9 7.3-9.7 10.6-14.8 3.5-5.2 6.7-10.6 10-16l2.2.7c-.2 2 .3 4.4-.7 6-4.2 7-8.7 13.6-13.1 20.4-1 1.7-2 3.5-2.8 5.2l1.6 1c6.2-9.6 12.5-19.1 19.4-29.4 2.5 4.6 10.8 3.7 6.8 11.3l6-.8c-.4 2-.4 4.3-1 6.3-.9 2.5-2.1 5-3.2 7.4l1.6.8c1.4-2.6 2.4-5.5 4.1-7.8 1-1.4 3.4-3 4.9-2.7 3.2.6 2.6 3 1.3 5.4-3.3 5.7-6.4 11.6-9.6 17.4l1.8 1c2.5-4.5 4.9-9 7.7-13.3 1.5-2.3 3.8-4 5.8-6-.6 2.8-.6 6-1.8 8.4-5 10.2-10.4 20.2-15.7 30.2l-3.6 7.2c-1.8-5.2-3.9-8.7-4.2-12.3m781.1-310.6c-.5-.1-1.1.2-1.6.3l-10.4 3.9c1.7 4.5 3.3 9.2 5.3 13.7.7 1.4 2.5 2.3 3.7 3.6 4 4.4 5.9 9.3 3.8 15.4-2.1 6.2-3.8 12.6-5.6 18.9-1.2 4.2-3.6 7-8 8.1-6.6 1.6-10.1 5.6-10.5 12.5-.2 5-.7 10-1.6 15-1.8 9-2.2 18.9-6.5 26.6-5.3 9.6-12.3 19.4-26.1 18.3-4.7-.4-6.2 2-5 7.3l5.7 21.3c1.1 4.5-1.8 9.7-6.3 10.8-1 .2-2.5-.8-3.1-1-3.3 2.6-6.4 5.1-9.6 7.4-5.1 3.7-7.8 11-5.8 16.4 2.2 6-3.7 13.4-10.2 12.7-1.7-.2-3.3-.7-5.6 0l4.7 2.2-7.6 4.4-6.5 3.6v.2h-.1a417 417 0 0 0-6.2 5l-6.2 5.1c-4.2 3.4-8.4 6.7-12.9 9.6-5 3.3-7.3 6.9-7.2 12.5 0 1.7.3 3.4.5 5.1.8 6.3-1 9.5-6.9 11.4l-3.3 1c-3.3.9-6.7 1.6-10 2.4-2.1 4.2-4 8.6-6.1 12.7-1.3 2.5-2.7 5-4.3 7.2-2.7 3.8-8.1 5.5-11.8 8.8-5.8 5.3-12.1 10.4-16.7 16.7-8.4 11.8-18.7 15.9-32.4 10.9-1.2-.5-2.5-.9-3.8-1.2-9.6-2.3-12.4-.8-16 8.3l-.8 2.1c-3.8 11.5-6.5 13.8-18.2 12.9-2.6-.2-6-3.5-7.4-6.2-6.6-12.8-12.6-26-18.8-39.1 4.8-4.8 6.6-5 9.9.7 3.7 6.4 6.6 13.5 10 20.2 3 6 6.4 12 10 18.8 3.2-5 4.6-7.6 1.1-12.8-6.4-9.5-11-20.3-16-30.7-.6-1.2 1.2-3.4 2-5.2 4 2 6.9-9.4 11.3-1 4.2 8.1 8 16.6 12.1 24.7 1.5 2.9 3.8 5.2 5.7 7.8l2-1.3-12.5-23.7c-1.8-3.2-3.9-6.2-5.5-9.5-.5-1.1 0-2.7 0-4 1.3.3 3.1.2 3.8 1 6 7.8 11.8 15.7 17.7 23.6 1.2 1.6 2.4 3.2 4.4 4.3-4.3-11.7-12.9-20.7-19.6-30.8l1.3-1 20 25.9 1.2-1c-4.9-9.8-14.4-17.1-18-27.7l2-1.5 27.7 34.5 1.9-1.4-26.8-35 1.6-1.2 35.5 39.6 2-1.7-35.9-41.4c10-3.8 14.3-15.3 25.2-17l.7-2 .6-2.2 3.2 1 1 .6 32 23.6c2 1.3 4.2 2.2 6.3 3.3l.8-1.4-39.9-29.8c2.3-4.9 5-6.4 9.5-4 14 7.8 28 15.4 42.2 23 1.7.8 3.8 1.1 5.8 1.7-1.7-1.7-3.2-3.7-5.2-4.8-13.3-7.5-26.7-14.7-40-22-1.4-.7-2.6-1.6-4.5-2.8 4-3.8 7.3-7.5 11.3-10.5 1-.8 4.1.2 5.8 1.1l31.1 18.8c2.1 1.2 4.5 1.8 6.7 2.7l.7-1.3-40.6-24c4.1-7.2 5.3-7.3 11.5-3 9.1 6.2 18.4 12.3 27.8 18.3 2.1 1.3 4.8 1.7 7.9 1.3-5.2-3.4-10.3-7-15.7-10.2-6.5-4-13.3-7.6-20-11.4-3.6-2-5.4-4.2-1.8-8l19-20c2.3-2.6 4.5-2.9 7.6-1.2 13.9 7.4 27.8 14.7 41.9 21.9 1 .5 2 1 3.2 1.3l5.4 1.6.2-.2c.7-1.2.7-2 .3-2.6-.2-.4-.6-.6-1.1-.9l-.9-.3-1.5-.6-43.2-21c-5-2.3-5-5-1.6-8.7 7-7.5 13.9-15.2 21-22.5 1-1.1 4-1.6 5.5-1l39.3 18.2c1.9.9 4 1 6.2 1.4l.7-2-46.3-21c1.4-4.4 4.1-5.2 7.7-3.8l16 6.7 26 10.9c1.2.5 2.7.5 4 .8l.6-1.5-48.3-20c.1-1.1.3-2 .6-2.7a5.1 5.1 0 0 1 1-1.5 5 5 0 0 1 1.5-1 14 14 0 0 1 5.3-1c-1.3-1.8-3.2-3.3-1.1-6.2 1.9-2.6 3.7-3.3 6.6-2.3l1 .2 2.7.2-7.7-4.6 6.8-14.7c2.7-5.5 5.7-10.9 8.1-16.5a772 772 0 0 0 14.2-36c2.1-5.6 2.5-12 4.2-17.8 4.4-14.8 9.2-29.5 13.5-44.3 1.3-4.4 4-5.8 8.1-5.4l16.6 1.3.2-1.4-15.8-1.6c-6.4-.6-6.6-1.5-3.9-7.3.9-1.8 1.5-3.8 2-5.8l-17.7-8.4-.3 3.9c0 2 .6 4 1 5.9 0 .3-.4.6-.4 1v4.8l-7.5 3.3 3.2 2.3-2.7 8.7-.4 1.7-8.3 30.6c-.4 1.3-1.3 2.6-2 3.8-.8 1.7-2.5 3.4-2.3 4.9 1.1 6.7-3.1 11.6-5 17.3-1.9 5.4-3.2 11.1-5.2 16.5-.7 1.8-3 3-3.4 4.9-1.2 2.1-2 4.7-3.6 6.4l-1.2 1.3-.5.6c-.8 1.1-.3 1.7 1.8 4-2.4.6-3.8 2-4.7 3.6-1 1.6-1.6 3.5-2.3 5.3a14 14 0 0 1-1.2 2.4l-1.5 2.5-2 4.7-2.4 4.2-1.7-.4c1 2.2 1.8 4.4 2.8 7-3 0-6.6-.2-5.2 4.8.1.3-.9 1-1.3 1.5l-6.5 7.7 1 1.3h-5l1.2 3.6-10.3 8.8 1.9 3.5-4.7-.8-1 11.6.8-.1-.8.8v-.7c-12.5 2.5-15.9 16-25.6 21.8-.4.2.1 2 .3 3.3-2 1.5-7.2-.4-6.1 5.4.1.8-3 2.2-4.4 3.4-3.2 2.6-3.5 5.4 0 8.2-2.1-.4-4.1-1.2-5.8-.8-2 .5-4.5 1.4-3 4.8.2.5-1.7 2.5-3 3-2.7 1.2-4 2.5-3.9 6 .1 1.5-3.5 3-5.4 4.6l-8.4 7.5.8 1.3c-1.3 0-3-.6-3.8 0l-17.1 17.5c-2.4-.7-5.4-.9-4.5 3.4l-30.9 20.2h-.4c-1.4 1-3.7 3.4-4.2 3-4.5-2.9-6.8 1.6-9 3.2-4.7 3.2-9.8 5.4-14.7 8-1.5.7-3.2.9-4.8 1.4-2.3.8-5.2 1-6.9 2.6-2.8 2.5-4.7 4.8-9.3 4.3-3-.3-6.3 2.7-9.5 4.3-.8.4-1.5 1.3-2.4 1.4-6.8.6-16 2.7-20.7 5.4-1.9 1-4 1.7-6 2.6-1.4.7-2.7 1.7-4.8 3l-.2-.7-14 5.6-3.1-2 .4 1.4c-4.5 1.5-8.8 4.2-13.3 4.4-7.9.4-14.8 3.1-22 5.6-2 .7-4.3.1-6.4-.3-8.8 2.1-17.5 3.6-26.9 3.6-8.4 0-16.8 3-25.3 3.8-9.2.8-18.4 1-27.7.7-8.2-.2-15.9 4.2-25 1.3l-.8-1.7c-7.6-.5-14.5-.6-21.3-1.5-6.2-.8-12.2-2.2-18.3-3.6-6.2-1.5-12.8-.8-18.5-5-5-3.8-13.7 1.3-17.8-6.4h-8.8l-1.5-4-3 2.5c-4.6-2.6-8.4-5.4-12.7-7.2-5.3-2.2-11.2-5.6-16.3-4.8-3.4.5-5.4-2.8-8.2-1.2-.3.1-1.2-1-1.9-1.6-1.2-1-2.3-2.2-3.7-2.6a29.8 29.8 0 0 1-14.2-8.4c-1 1.3-2 2.6-3.7 4.5l-.9-6.7-2.9 2.5-5-4.5-3.7-3.8c-3.2 3-4.9-1.3-7.8-2.9l-3.5 4.5 1.4-8.3-5.8 5.2.8-5.4-3.4 1-.4-3.9-6.2 4 2-8.2-4.5 3.2-1.7-.8c-3.1-2-6-5.4-9.4-5.8-4.4-.5-7-2.9-10-5.2a24.2 24.2 0 0 0-7.4-3.5l-4.1-3.4c-2.9-2-5.7-4.2-8.7-6-4.2-2.8-8.7-5.2-12.9-8-4.8-3-12.2-5.6-13.6-10-2.1-6.3-8-8.5-10.6-13.7-1-1.8-3.6-2.8-5.7-4l-4.9-4.6c-3.3-3.3-6.8-6.5-10-10-4.5-5-9-10-13.3-15.3-3.7-4.5-6.5-9.9-10.7-13.8-4.5-4.3-7.1-9.5-10.3-14.5-.7-1.2-2.7-1.5-3-3-1.5-2.4-2.7-5-4.5-7-1.9-2-.3-8-7-5l2.6-4.7c-5.4.6-7.4-3.9-7.5-7.2-.3-5.9-3-8.1-7.7-8.7-.2-1.7 0-3.1-.5-4.3-2.1-4.6-4.4-9-6.7-13.6-1.1-2.3-2.5-4.5-3.7-6.7-1.9-3.7-3.4-7.6-5.6-11.1a72.6 72.6 0 0 1-12-28.6c-.2-1-2-2-3-3-3.2-2.7-2-5.7-2.3-8.2-1-2.5-1.4-5.4-3-7.3-2.6-3.2-2.1-6.8-3-10.3-1.4-5.9-3.9-11.6-6.3-17.2-3.3-7.4-7.8-14-8.2-22.7-.1-4-2.6-8-4.4-12.6l-3 .5-15.5 6.4-5.8 2.9 11-2.6.6 1.8c-12 9-27.1 11.7-40.1 18.7l.6 1.7c1.5-.4 3-.7 4.4-1.3 10.3-4.4 20.5-9 30.8-13.3 1.6-.7 3.7-.2 5.6-.3-1 1.6-1.7 4-3.2 4.7-7 3.5-14.3 6.6-21.5 10-3 1.5-5.8 3.2-8.2 5.6 11.5-4.5 23-9 34.7-13.3.2 0 1 1 2 2.2l-37.8 17.4.6 1.4 38.8-16.3 1.2 2.4c-11 9.1-25.7 12-37.6 19.4l.8 1.6 23.1-10.6c3.5-1.6 6.9-3.5 10.5-4.7 1.3-.5 3.2.7 4.8 1-1 1.9-1.5 4.6-3 5.3-6.5 3.1-13.2 5.5-19.7 8.4-6 2.6-11.7 5.5-17.5 8.3l.7 1.5 22.8-9.7c4.8-2 9.5-4.2 14.4-6 1.4-.5 3.3.4 5 .7-1 1.5-1.5 3.9-2.8 4.5-9.2 4.5-18.6 8.6-27.8 13-3.4 1.5-6.6 3.5-9.9 5.3l.8 1.7 42.4-19.8 1.6 10c-12.7 5-25.3 10-34.4 20.7 11.6-6.4 22-15.5 35.5-17.8l1 1.6c-2.9 2-5.6 4.1-8.6 6-8.9 5.3-18 10.4-26.9 15.8-2.9 1.7-4.8 1.7-6.2-1.9-.5-1.4-2.1-2.6-3.5-3.5a33.4 33.4 0 0 1-16.4-28.2c-.1-4-1.3-8.5-3.3-12.1-2.2-4-2.5-7.7-.2-11.4 1.8-3 2.8-6 3.3-8.9l-2.9-1-4.4-3c.2 3-.4 6-1.9 9.5a34 34 0 0 0-.6 24.8 41.8 41.8 0 0 1 3 15.1c-.3 5.1 1.3 8.2 5.3 10.5 10.7 6.2 13.4 12 11.2 24-.3 2.1.2 4.5.7 6.6 1.4 6.2 7 8.7 11.4 12.1 4 3.2 9.3 5.1 12.8 8.8 3.7 4 5.8 9.7 9 14.3 1.8 2.6 5.9 4.2 6.6 7 2.5 9.2 4 18.7 5.8 28.2 1.6 8.4 2.9 16.9 4.8 25.2.6 2.4 2.5 5.1 4.5 6.5 3.9 2.4 8.5 3.7 12.4 6 2.3 1.3 4.8 3.3 5.7 5.6 1.4 3.3 2.5 7.2 2 10.7-1.2 11 3.6 19.3 10.3 27.2 3.3 4 7 6.7 12.2 6.8 9 .1 14.5 5.7 17 13.3 3 8.5 9.4 13.5 15.6 18.8 9 7.8 18.7 15 27.5 22.9 6.8 6 13.6 9.5 23 6.8 8-2.2 13 1 16.3 8.4 2.3 5.3 4.8 10.5 7.3 15.7 2.5 5 6 8.7 11.6 10.3 6.5 1.7 13.7 2.7 19 6.3 7.4 5.1 13.5 12.3 22.8 14.4 6.4 1.5 12.5 7.2 19.8 1.7 4.2-3.1 9.2-1.8 11.6 2.8 2 4.1 4 8.4 5 12.9 2.3 11 12.7 16.2 22 18.1 6.9 1.4 14.4 2.7 20 6.5a54 54 0 0 0 20.2 9c2.2.5 4.5 1.3 6.5 2.4 7.5 4 14.5 2 19-5 2.6-3.9 3.8-9.7 11-9.3.2 2.3 1.2 4.8.6 6.8-1.3 4.6.7 7.7 4.2 9.8a69.2 69.2 0 0 0 46.5 9 39 39 0 0 0 10.6-3.4c4.7-2.5 9-6 13.7-.2.7 1 2.5 1 3.7 1.6 7.2 3.6 15 2.2 22.5 2.7 9.8.7 17.2-2.5 22.1-11 1.7-2.8 3.2-5.6 4.5-8 10.4 0 14 7 16.3 14.8 1.2 3.9 3.1 5.5 7 5 10.5-1.2 20.9-2.3 30.3-8.1 2.7-1.7 7.1-1 10.8-1 5 .1 10.6 5.3 15-.2 4.8-6 11.1-6.9 17.8-8 13.4-2.4 27.6-3.3 33.9-18.7a7.6 7.6 0 0 1 2.9-3.5c1.4-.8 3.6-1.7 4.7-1.2 8.4 4.3 17 3.6 25.6 1.8 6.1-1.3 12.3-3.3 13.8-11.1a6.8 6.8 0 0 1 3.9-4.4c9.2-3 18.7-5.5 28-8.2 7.9-2.3 14.2-6.1 15.3-15.3.3-2.8 1.7-5.4 2.8-8.9l3.3 2.1c5.2 3.5 8.6 8.7 17.4 5.3a76 76 0 0 0 34.6-25.4c3.7-4.9 7.6-10.4 12.8-13.2 9.2-5 13.4-13 16.2-22.2 1.2-3.5 2.8-4.6 6.5-5 4.1-.5 10-1.5 11.7-4.3a76.6 76.6 0 0 0 9.1-23.3c1-4.4 1.7-7.6 5.7-9.5 3-1.3 6-2.5 9.2-3.5a36.5 36.5 0 0 0 19-13.3c3.4-4.4 7-9 11.3-12.3 6.2-4.8 10-10.4 10.3-18.3.1-2.2.9-5 2.3-6.3 5-4.4 10.5-8.2 15.9-12.3 9-7 10-14 3-23.3-.7-.9-1.4-1.7-2-2.7-2.1-3.3-1.8-5.8 2.3-7 3.7-1.1 8-1.3 11-3.4a57 57 0 0 0 22.9-33c2.2-9 2.4-18.6 4-28 .5-2.9 2-6.4 4.2-8.2a55.3 55.3 0 0 0 14.3-16.3c6.7-12.5 6.3-26-3.4-36.2-4.6-4.9-1.3-7.9 1.6-8.9 6.9-2.3 8.5-7.7 10-13.2a23.1 23.1 0 0 1-8.4 2.7c-1.3 1-3.2 1.5-5.9 1M1207.8 667.8v.4h10.1l4-1 1.4-3-12.5 3.4c-1 .3-2 .2-3 .2"/><path fill="#501936" fill-rule="nonzero" d="M342.9 905.8c5.7 14.3 10.8 29 16 43.4 6.4 17.7 15 34.3 27 48.9 12.3 15.2 25 30.3 37.9 45.1 3 3.6 7.4 6 11.2 9 13 10 24.4 21.4 33.1 35.8 10.2 16.8 26.9 25.9 44.9 32.8 17.2 6.6 35.2 11.6 50 23.4 5.6 4.6 11.1 9.4 17.1 13.4 6.6 4.5 14.1 7 21.8 9.5 23.1 7.9 46 16.4 68.8 25.6 15 6 29.6 6.5 45.3 3 9.2-2 19.1-.3 28.7-1 22.9-1.4 46-1 68.4-6.7 2.8-.7 5.8-.8 8.7-.6 22.7.9 43.7-5.8 62.7-17.1 14.5-8.6 29.9-14 45-20.6 12.1-5.1 22.8-13.6 34-21 12.6-8.4 25.3-16.7 37.5-26 10-7.6 19.2-16.5 29-24.5 7.4-6 15.2-11.4 22.7-17 13.5-10.1 22.7-24 33-37 6.6-8 9.3-17.9 15-26.2 3.5-5 7.7-9.7 10.8-15 2.8-4.8 4.8-10.1 7-15.4 4.3-11 8.6-21.9 12.6-32.9L1149 884c1.5-4.1 3.5-8.1 5.2-12.2 4.8-11.2 9.1-22.5 12-34.4l-3.7-1.8-2.3 9.1c-2.7 10.4-7.2 20.3-11 30.4l-12 31.9-15.2 40c-.6 1.5-1.7 3-2 4.7-2.6 19-14.9 32.8-25.1 47.8-1 1.5-2.6 3.2-2.8 5-.8 9-7.8 14.2-12.7 20.7-3.3 4.4-7.4 8.5-10.2 13.2a67 67 0 0 1-20.2 20.3c-9.3 6.6-18.1 13.8-27.3 20.6-23.6 17.6-47.5 34.9-70.9 52.8-13 9.9-27.7 15.6-42.8 21-8.7 3.3-16.6 9-24.6 13.8a127.7 127.7 0 0 1-53 17.3c-31.3 3.5-62.8 5.2-94.3 7.7-10.3.8-20.7 1.1-31 2.5a68.3 68.3 0 0 1-34.9-5.3c-19.9-7.8-39.8-15.6-60-23-10.8-3.9-22-6.9-31.5-14-8.8-6.5-17.4-13.3-26.7-19.1-8-5-16.3-9.7-25.1-12.7-26.7-9-47.5-25-62.7-48.6-6.9-10.5-17-17.8-26.3-25.8-16.5-14-33.1-27.7-44.5-46.7-4.6-7.5-10.3-14.4-15.6-21.6-10-13.5-15.2-29-20.8-44.6-5.7-15.8-12-31.3-18-47-4.7-12.4-10.4-24.6-13.9-37.4l-3.1-11.5-4.7 1.9v1.1l3 10c6.5 18.9 15.2 37 22.6 55.7M1257.8 638.2l-.7-1.6-20.6 6.7 4 2 14.3-4.9c1.1-.4 2-1.4 3-2.2"/><path fill="#501936" fill-rule="nonzero" d="M258.2 608.7a8.2 8.2 0 0 1 6.3-1.9c11 1.8 22 4 33 6.3 1 .2 1.7 2.3 2.6 3.5-1.4.5-2.9 1.6-4.2 1.4-9.2-1.8-18.4-4-27.7-5.8a16 16 0 0 0-8.2.9l29.4 5.6c1.9.4 4 .5 5.5 1.6 1.4 1 2 3.2 3 4.8-1.7.8-3.5 2.5-5 2.2-11.6-1.8-23.1-4-34.7-6-2.7-.5-5.4-.7-9-1.1 3.3-4.4 5.8-8.3 9-11.5m11-8.8c10.5 1.8 20.8 4.1 31.2 6.4.6.1 1 .9 1.6 3-2.5.1-5 .7-7.4.3-10.6-1.8-21.1-4-31.7-6l-.5-1.5c2.3-.8 4.8-2.6 6.9-2.2m11-24.5c2.6-4.3 2.9-8 .5-12.5-3.6-6.8-9.2-12.9-8-21.7.7-4.8 1.6-8.7 6.2-11.6 3.5-2.1 6-5.7 9-8.7h-.1c-4-5.7-1.8-10.8 1.3-16 6-10.4 6-10.4 17-5.6a104.4 104.4 0 0 0 6 2.4l4.8 1.9-4.3-2.4-1.1-.6a2435.8 2435.8 0 0 1-15.6-8.7c3.2-1.7 5.2-3.1 7.5-3.8 6-2 12.2-3.4 18.2-5.5 3-1 5.6-2.9 9-4.7l19.2 14.3-.8 1.5-21.2-11.4-1 1.6 9.6 7.1c.6.5 1.3.8 2 1.2 2.8 1.7 5 3 6.3 4.1l.7.7c.3.4.6.8.7 1.2.2.5.3 1.1.2 1.8l-.2.4c-.2.6-.3 1.2-.7 2l-1.2 1.6-1 1.3-1.3 1.7-1.9 2.2-.3-.1.3.2-4.9 3.2c1.7 6.5-2 10.3-8.9 9.4 1.3.8 2.8 1.5 4 2.5.8.7 1.2 2 1.9 3-1.4.1-2.9.8-4 .4-8.2-3.3-16.3-7-24.5-10.2a19 19 0 0 0-7.3-1.2l33.9 14.5c-2.5 5.2-5.7 3.2-8.3 2.3-8.6-3.3-17-7-25.7-10.3a27 27 0 0 0-4.2-1.2l-3-.6-1.2-.2 38.9 16.2c-.4 4.9-2.4 6.2-6.6 4.7-9-3.2-18.2-6.3-27.3-9.3a10 10 0 0 0-5.9-.1l36.8 13-.5 2.5c-1.6 0-3.3.4-4.7 0L286 537.7a7 7 0 0 0-5 .5l40.1 12.6-.4 3c-2.7 0-5.6.6-8-.1-8-2.3-15.8-5.2-23.7-7.6-2.5-.8-5.1-1-7.7-1.6l-.4 1.6 37.6 12.1c-1 4.8-3.2 4.2-6 3-6.4-2.3-12.8-4.6-19.2-6.7-1.8-.6-3.8-.7-6-.4 9 5 19.9 6 28 12.9-9 1.7-16.3-4.6-24.8-5l-.6 1.5 21 8.1-.4 1.8-17-2.8-.3 1.4 11 2.6c1.7.4 3.6.7 5 1.6 1 .6 1.5 2.1 2.2 3.2-1.2.7-2.6 2-3.5 1.9-6.4-1.5-12.7-3.3-19-4.8-2.4-.6-4.9-.8-7.3-1.2l-.3 1.9L309 585l-.4 2.7-24.8-4.2-.5 2 11.4 2.6 12.4 2.5.6 1.8c-1.8.7-3.6 2.2-5.3 2-7.9-.4-15.7-1.4-23.6-2-2.1-.3-4.3-.1-6.4 1.1l32.5 4c0 4.7-2.3 6.2-5.8 5.7-6-.9-11.8-2-17.7-3.2-4.3-.9-8.5-2.2-13.3-3.4 4-7.1 7.9-14.3 12.2-21.2m48-129.8c7.6-3.3 13.3-2.6 19.2 3.6 5.3 5.5 12 9.6 18 14.5 1.2.9 1.6 2.7 2.4 4.1l-1.8 1.7-28.8-23.4-1.3 1.6 27.8 23.6-.6.7-30-21-1.3 1.8 18.6 13.9c3.1 2.3 6.4 4.3 9.4 6.7.8.7.7 2.5 1 3.8-1.2.2-2.9.9-3.6.4-10.5-7.8-21.1-15.4-31.1-23.8-4.9-4.1-3.6-5.6 2-8.2m12.1-13.7l6 4.6c7.9 6.5 15.7 13 23.4 19.6 1.4 1.2 1.8 3.5 2.7 5.3-2-.2-4.4.3-5.8-.7a263 263 0 0 1-21.2-16.7c-3-2.7-4.7-7-7-10.6l2-1.5m3.6-8.7l2.5-.6c6.5 6.5 12.7 13.2 19.4 19.5 3 2.9 7 4.8 10 7.6 1.2 1 1 3.6 1.3 5.4-1.7-.2-3.8.2-4.9-.7-9.5-8-19-16-28.2-24.4-1.1-1-.1-4.5-.1-6.8m5.4-8.7c3 2 4.5 2.7 5.6 3.7 9.3 8.3 18.6 16.6 27.8 25.1.8.8 1.3 3.5.9 3.8-1.1.9-3.5 1.7-4.3 1-10.1-8.4-20.2-17-30-25.9-1-1 0-4.2 0-7.7m4.2-3.1c1.2.2 3.1-.1 3.7.6a133.6 133.6 0 0 0 29.7 27c.4.3.4 1 .6 1.5l-1.4 1.8-33.1-29.4.5-1.5m9-12.8c2.6-2.8 5.6-1.7 8.2 1.5 8 10.3 16.3 20.4 24.5 30.6l.2 2-24.4-23.9-1.2 1.1 23.3 25.7-1 1.3c-1.5-.6-3-1-4.4-1.8-11-7-20.5-15.6-28.6-25.8-4-5 .8-8 3.3-10.7m15-.5c6.4 7.4 12.7 14.8 18.7 22.5 1.8 2.2 2.7 5 4 7.7l-3.5 2.8c-2.2-3.1-4.2-6.4-6.6-9.4-5.4-7.2-11-14.2-16.5-21.4-.7-1-.3-3-.5-4.5 1.5.8 3.4 1.1 4.4 2.3m3.8-14.8l30 32.2-5.7 3.7-22.4-27.1c-.5.4-1 .9-1.7 1.3l21.1 27-1 1c-2.1-2-4.5-3.7-6.4-5.8-4.3-5-7.9-10.5-12.5-15.1-5.5-5.5-5-11-1.4-17.2m2.8-8.7l33.4 35.3c-3 0-5.8.8-6.7-.2-9-9.2-17.7-18.7-26.2-28.3-1-1.1-.3-3.6-.5-6.8m5.4-3.2c1 .2 2.5.1 2.9.7 6.6 12.3 17 21.3 26.6 31 .3.3.1 1 .3 3-4.7-4-8.8-7-12.2-10.7-6-6.7-11.8-13.7-17.5-20.7-.6-.7 0-2.2 0-3.3m5.4-6a69.7 69.7 0 0 0 9.7 14.9c1.9 2.2 3.8 4.4 5.9 6.5 4.7 4.8 10 9.2 15.3 13.5-1-1.6-1.8-3.3-2.9-4.9l-1-1.5c-7-8.5-14.6-16.4-20.8-25.4-4.3-6.2.1-13 8-13.7 0-6.5 18-24 24.2-24 1 2.4 1.4 5.2 3 7 7.2 8.5 14.7 16.7 22.1 25 1.7 2 3.5 3.8 4.5 6.4-13-7.5-23-18-32.5-29.3 5.8 13.8 17.2 23 28.9 32.8-8.3 7-15.9 13.6-23.8 19.7-1.3 1-5 .6-6.5-.5-8.5-6-14.7-14-19.3-23.3-1-2-2.2-4-3.7-6.6.1 6.6 3.9 15.3 9.5 21.3a121 121 0 0 0 10.4 9.9c3.1 2.6 3.8 4.8-.1 7.1-1.4.2-3.4 1-4.1.4a102.4 102.4 0 0 1-26.6-30c-.7-1.4-.8-3.2-.2-5.4m45-29.1c2.1.6 4.8.7 6.1 2 6.9 7.6 13.4 15.4 20 23.1 1 1.1 1.7 2.4 2.5 3.6l-1.9 1.8-27.5-28.7.9-1.8m8.6-3.1l27.1 28.8c-2.5 0-4.6.6-5.3 0-7.8-8.8-15.4-17.7-23-26.6l1.2-2.2m8.6.7c1.3.1 3.3-.3 3.9.4 6.2 7.7 12.3 15.6 18.4 23.4l-1 1.5c-1.6-.7-3.6-1-4.7-2.2-5.6-6.1-11-12.3-16.4-18.7-.7-1-.2-2.9-.2-4.4m10.3-5.4l1.2-5.7 1.7-.4c4.3 10.8 14.4 18.3 17.4 30l-2.1 1.4-15.9-21.8 6.7 12.4 2.3 4c1.4 2.4 3.4 4.4 5 6.6l-1.4 1.1-13.8-16.3a58.4 58.4 0 0 1-4-5.5c-2.4-3.6-1.8-5.8 2.9-5.8m8.5-19c6.7 11.7 13.2 22.6 19.3 33.8.8 1.4-.3 3.9-.5 5.8-1.9-.5-4.5-.5-5.5-1.8-5.1-7.2-9.4-15-14.8-22-4.5-5.9-2-10.3 1.5-15.8m3.6-6l23.8 36 .3.5c.7.7 1.5 1.2 2.3 1.8l1 .6-5.5-9.6-1.9-3.2c-4.7-7.5-9.7-14.8-14.5-22.3-.9-1.4-2.2-3.1-2-4.6 0-1.8 1.3-3.5 2.5-5 .1-.2 2.8.8 3.5 1.8 7.9 12.2 15.6 24.6 23.4 37l.7 2-6.2 4-6.1 2.9a57.5 57.5 0 0 1-8.1-11c-7.7-12-14.7-27.6-13.2-30.8m12.3-8.9l20.4 33.1-1.4 1-21.4-32.9 2.4-1.2m8.5-5.7c4-.3 8-.6 12.1-.4 1.5 0 3.7 1 4.3 2.2a701.5 701.5 0 0 1 15.5 35.4c.5 1.2-2.5 4.5-4.6 5.8-1 .6-4.4-.8-5.2-2.2-2.7-4.8-4.6-10.1-7-15.2-1-2-2.3-3.8-3.5-5.7l-1.3.7 9 19.4-1.4.8c-1.7-2.3-3.5-4.6-5-7L497 295.5c-2.3-4-1-6.3 3.5-6.6m31.9-11.6c.9-.5 3.7.8 4.3 2 5.3 9.6 10.2 19.4 15.2 29.2 1.2 2.4 2.3 5 3.4 7.6l1.8-.8c-2.9-6.7-5.4-13.5-8.6-20-3.3-6.7-7.3-13-11.4-20.2 5.1-2.7 9-8 16.7-5 6 2.3 12.8 2.3 19.2 3.9 1 .3 2.1.8 3.2 1.4l5 3.2c1.2-.7 2.3-1.9 3.4-2.5l1.2-.5c6.5-1 10.1-5 12.6-10.6.8-1.9 2.4-3.4 4.4-6.2l14.6 36 1.7-.8-9.5-25c-1.3-3.3-2.8-6.5-3.5-9.8-.3-1.7.7-3.8 1.2-5.6l2.4-.2 15.4 37.5 2-.8-11.1-28.5c-.8-2.1-2.1-4.2-2.7-6.4-.6-2.8 0-5 3.4-6 7-1.9 14-4.3 21-6.2 1.9-.5 4 0 5.6-1 3-1.7 5.7-4 8.9-5 5.6-1.8 11.5-2.9 17.3-4.2 4.1-1 6.7.8 7.7 5l6.6 28.5c1.3 5.2 2.8 10.3 4.5 15.4.3 1 1.9 1.8 3 2.6l.1.1v-.1c-1.6-7.2-3-14.5-4.8-21.7-1.7-6.8-3.8-13.4-5.6-20.1-.6-2.1-.7-4.4-1.2-7.7 12.2 2.4 20.8-4.5 30.3-8.8 3.7-1.7 6.3.2 6.9 4.8l5.3 44.8c.1.7.3 1.5.3 2.3.3 2.1 3 5.5-1.4 5.7-2 .2-5.2-.7-5.7-4.8-1.2-11-3.3-21.9-5-32.8l-1.6.2 3.2 24.4-1 .1-7-28.3-1 .3 8.3 41.5c-11.2 2.2-11.3 1.7-13.2-8.5-1.8-9.8-4.6-19.4-7-29l-2 .4.9 4.6 6.4 28.2c.4 1.7.4 3 0 4-.6 1.4-2.2 1.6-5.1.4v.1h-.1l-15.9.6h-5.3c-1.3 0-3-3-3.7-5-2.2-6.4-4-12.8-7.2-19l5.8 25c-5 1.2-5.6-3.1-6.7-5.5-2.7-5.6-4.5-11.5-6.7-17.3-.9-2-1.8-4.1-3.7-5.9l9.8 29.9c-4.3 2.6-6.9 2-8.2-3a701 701 0 0 0-6.4-22.2c-.6-2.1-1.7-4-3.5-5.6 2.6 10.1 5.2 20.3 7.6 30.5.2 1 .8 2.5.3 3.2a1 1 0 0 1-.5.3c-.4.1-1 0-2-.2v-.1c-6.8 3.2-8.7 2.2-10.7-4.8-2.2-8-4.7-16-7.1-23.9l-1.6.5c2.2 8.7 4.2 17.3 6.7 25.9 1.2 4.2.3 6.1-4.2 7.4-9 2.6-18 5.6-26.8 8.9-4 1.4-5.4.2-7.3-3.5-3.7-7.6-8.4-14.7-12.7-22l7.8 19.2 2.3 6.6c-5.8.6-6.5-3.6-7.6-7.4a44.3 44.3 0 0 0-5-10.8c-.6 8.3 5.5 15.5 3.8 23.7l-1.7.7-10.6-24.3-1.5.7c2.5 7.1 5.2 14.2 7.6 21.4 1.4 4.5 1.2 4.5-4.1 5.4l-10-29.4-1.7.7c2.5 8 4.8 16 7.6 24 1.8 5-.3 7.1-4.7 8.5L550 322l-16.4-29.9-1.4.7 14 29.4c-7.4 6.8-9.6 6-12.8-2.3-3.4-8.7-8-17-12-25.4-1.4-2.8-3-5.4-4.4-8 5.5-3.3 10.3-6.6 15.5-9.3m186.7-48.2c1.1-2 6.1-1.6 9.5-2.4.7 8.6 1.2 17 2 25.3 1 7.8 2 15.6 3.2 23.4 1 7 .5 7.7-7.8 7.8l-6.8-43.5c-.5-3.6-1.7-8-.1-10.6m15-8.3c2.3 1.4 5.3 2.3 6.7 4.3 5.4 7.4 10.9 14.9 15 23 2.3 4.4 2 10.1 2.5 15.2.5 4.4.6 8.9.6 13.3 0 2.7 1.3 6-3.5 6.3-7 .4-10-1.1-10.5-5.8-1.2-12.3-2.4-24.6-3.8-36.8-.4-3.2-1.3-6.3-1.9-9.5l-1.1.2 4.4 50c-3.7 2-5.8 1.5-6.3-3-1.8-16.4-3.8-32.9-5.3-49.4-.2-2.5 2.1-5.2 3.3-7.8m36.5 12.2c2.2-3 4.5-4.7 8-2 1.1.7 2.6 1 3.9 1.3 7.6 1.3 8.3 2.2 8.5 10.3l.7 34.6c0 .5.2 1 1.1 1.6v-46.5c4 2.3 3.9 3.4 3.7 9.2-.4 11.3-.1 22.6.4 34l.8-13.7c.2-6.6.3-13.1.3-19.7.1-9.5 0-9.5 10-10v48.3l1 .1c.3-2.5.6-5 .6-7.5.3-12.1.3-24.3.8-36.5 0-1.7 1.6-3.4 2.5-5 1 1.3 2.7 2.5 3.1 4 1.1 4.3 5 3.8 7.7 4.5 3.3.8 4.4 2.3 4.5 5.6 0 11.3.2 22.7.4 34 0 .9.3 1.8 1.6 2.6.3-6 1-12 .9-18-.1-7-1-13.8-1.2-20.8 0-1.3 1.2-2.6 2-4 1.3 1.2 3.5 2 3.7 3.4.3 1.1.5 2.3.6 3.4.5 3.2.7 6.4 1.1 9.6V247v-7.1c6.3 2.4 11.8 5 17.9 2.2.4-.2 2.7 1.9 3 3.1.4 2.8 0 5.8 1 8.6l.1-9.1c0-3.6 1.5-5.5 5.5-4.6 2.4.5 5.2 0 7.4.8 2.8 1.1 5.9 2.7 7.4 5 2.3 3.4 4 5.3 8.6 4.4 5-1 10 0 12.3 6 1.4 3.9 3.1 7.4 10.1 3.6-2.3 13.3-4.2 24.6-6.3 35.9-.1.8-1.8 1.4-2.7 2.1-.5-1.2-1.6-2.5-1.4-3.6 1-6.3 2.2-12.5 2.1-19-1 4.2-2.3 8.4-3.2 12.7-1.6 8.5-1.8 8.8-10.5 7.5-1.5-.2-3-.6-4.4-.9l1.8-38.3-1.6-.1-3 38c-11-1.8-20.8-4-30.7-5-16.8-2-33.7-3.2-50.6-4.8-5.4-.5-10.7-1.2-16-1.4-5.2-.3-7.6-2.4-7.6-7.8 0-10.3-.3-20.5-.6-30.7 0-1.2-.3-2.4-1.6-3.6v18.4c0 6 .2 12 .4 18 0 3.1-.5 4.8-4.7 4.3-9-1-9.1-.7-9.3-10 0-1.2.2-2.5-.2-3.5-5-14.1 2.4-24.6 10.1-35m144.4 40.4c1-5.2 4.2-5.9 8.6-4.7 11 2.8 12.5 2.2 19-7l2.9-4.4c2.3-3.1 5-3.2 6.8.2 2.4 4.6 5.6 5.3 10.5 4.3 11.5-2.4 21.4-.7 28.2 11 5.5 9.4 15.7 13.6 25 18.9a174 174 0 0 1 26.4 18.3c4.8 4 7.5 13.6 2.4 20.4-4 5.4-6.5 11.7-10 17.5-1.5 2.7-3.7 5.1-5.6 7.7l-2.1-.8c.4-2 .4-4.3 1.3-6.2 3-6.2 6.5-12.3 9.6-18.5 1.7-3.5 3-7.2 4.6-10.9l-1.6-.6-16.4 32.4c-1.3 0-2.2-.3-2.8-.7-1.9-1.2-1.4-3.5-1.2-5.6 6.9-10 13.2-20.5 16-32.4-3.3 5.4-6 11-8.8 16.7l-7.3 15.6c-3.1 3.3-6.4 1.7-8.4-.8-1.3-1.5-1.3-5-.5-6.9 4.1-9.5 8.7-18.9 13-28.3.6-1.2 1-2.5.4-4.1-5 9.7-10.2 19.4-15 29.2-1.7 3.2-2.6 6-7.1 3.7-4.6-2.5-1.9-5-.6-7.7l7.7-15.9-1.4-.7-11 21c-3.3-1.8-6.7-3.2-9.5-5.4-1-.8-1.6-3.8-1-5.2 2.8-6.6 6-13 9.1-19.4l3-6.1-1.2-.8c-1.5 2.4-3.2 4.7-4.4 7.2-2.9 6-5.2 12-8.4 17.8-.8 1.6-4 3-5.7 2.7-3.6-.8-2.4-3.6-1.3-6 1-2.3 1.9-4.6 1.6-7.3-1.2 2.5-2.2 5.1-3.8 7.4-.7 1.1-2.5 1.6-3.8 2.4-.4-1.7-1.6-3.6-1.1-4.9 1.6-4.6 3.8-9 5.7-13.5l-1.6-.8-7.3 17-1.7-.3-1.4-3.5c-2.4 0-4.3.4-6-.1-2.7-1-5-2.8-7.8-3.7-6.8-2.2-7.2-2.7-5.6-9.8l.7-2.7-.7-.4-4.5 8.8-1.8-.7 7.8-38-1.2-.3-7.2 31c-1.7 7.7-1.7 7.9-9.6 5.6-7.4-2.2-14.6-4.6-22-6.9l4-28 4.1 3.2m135 51.9c2.6 3.3 2 6.5-.2 10-4 6.1-7.8 12.6-11.7 18.9l1.5 1c4.8-7.9 9.7-15.6 14.6-23.4.6 0 1.2 0 1.8.2 0 3.5.5 7.2 0 10.7-.8 4.2 0 5.3 4.6 5 10.7-1 21.5-1.2 32.2-1.6 1 0 2.6 0 3.3.7 4.1 4.2 9.3 4.3 14.6 4 3.2-.3 4.8 1 6 4 1 2.7 2.5 5.4 4.5 7.3 5 4.4 6.2 10.5 7.6 16.4.3 1.3-1.2 3.4-2.4 4.6l-20.2 19a5 5 0 0 0-1.7 3.5l20.9-18.8c6-5.3 13.2-7.7 21.1-7.7a6 6 0 0 1 4.5 3c4 8.4 4.8 11.2-4.4 19.5-11 10-21.3 20.7-31.8 31.2-1.3 1.3-2.2 3.1-3.2 4.7-5-4-4.1-6.9-1.2-9.7l36-35.1 4.3-4.7-1.7-1.7c-14.4 14-28.7 28-43.9 42.6l-2.6-5-2-3.9-16.8-16.7c-.6-.6-.5-1.9-1-2.4l-22-20c-.8-.7-1.4-1.8-2.4-2.3-7.6-4.2-6.7-5.5-1.7-12.4 2.4-3.3 5-6.3 7.6-9.4l-1.4-1.3c-2.6 2.7-5.8 5-7.6 8.1-2.7 4.7-5.9 6.5-11.3 4.1l-.6-4.9c-5.2 4.1-6.7-1.6-9.4-3.6-1-.8-1.7-3.6-1.1-4.6 5.6-9.9 11.4-19.6 17.2-29.3m105.7 73.6c-1 2-1.8 4.5-3.4 6-12.5 11.7-25.2 23.2-37.8 34.8-.3.3-1 .2-3 .6 12.7-16.9 28.5-28.7 42.4-42.4l1.8 1m2.8 14.2l5.8 5.3c-7.3 6.3-14.3 12.8-21.8 18.6-1.8 1.4-5.3.4-8.5.6 4.4-3.6 9.4-7 13.6-11.2a60.1 60.1 0 0 0 6.7-7.8l.7-1 3.5-4.5-37.1 31.7c-1.1 1-2.4 1.7-3.5 2.6l-1.2-1c1.2-1.6 2.1-3.4 3.5-4.7 8.4-7.7 17-15.1 25.3-22.8 2.5-2.4 6.6-4 5.5-9-.2-1 2.8-2.7 4.7-4.5l2.8 7.7m8 46.4l.2-.1 9.5 2.3-35.4 23c-3.1-5.2 1.6-5.9 3.7-7.5 6.4-5 13.1-9.8 19.6-14.7a7 7 0 0 0 1.4-1.5l1.1-1.5-10.7 6-3.5 2.1c-3.6 2.3-7 5-10.5 7.6l-1-1.2 20.9-16-1.5-1.8-23.7 17.6-1.5-1.1c1.3-2.2 2.2-5 4-6.3 4.2-3 9-5.2 13.3-8 2.5-1.7 4.6-4 6.2-7-10.6 2.8-17.6 12.6-29.3 13.3 1.2-1.3 2.2-2.9 3.6-3.8 6-4 11.9-7.8 18-11.2 3-1.7 4.7-3.2 3-7.8-4 2.4-7.8 4.4-11.4 6.8-3.6 2.5-7 5.5-10.5 8.2-5.6 4.3-5.6 4.3-8.6-2l33.3-25.5a39 39 0 0 0 9.9 30m-12 90.2c.4 1.1 2.4 1.6 3 2 .5 2.2.6 4 1.4 5.2.8 1 2.5 1.4 3.6 2l-3.6 3.2.4.9 2.8-.6 7 25.6-2 .6c-1.5-4.7-3-9.5-4.8-14.2a84.2 84.2 0 0 0-4.3-9.8l-34.1-64.8c-1-1.9-.8-4.4-1.2-6.5l2-.3 5.8 10.4 5-.6-3.4 10.6c4.2-.5 7.4 0 6 5.2-.1.8.9 2.1 1.6 3 7.7 8 11.2 18 14.8 28.1m17.4-63.3l-24.5 15.7c1.5-6.4 17-16.2 24.5-15.7m-821.4 42.3c-1.6-7 1.1-12 6.2-16l1.7.9-7.9 15M251.1 643l4.1-2.5-12-1.6-.5-7.8 27.4 4.5 5-1.3.7-.1-11-2.2-21.5-3.5c.8-4.1 2.5-6.2 7-5.4 13.9 2.4 27.7 4.5 41.5 7 1.4.2 2.4 2.4 3.6 3.7l-2.2 1.7 6.2 8.3 5.1-1.4-4.3-16.4 9.7-2.5c.5-2.1 1.4-4 1.8-6.2.7-3.3 2-6.5 3-9.7 1.8-5.8 3.8-11.5 5.5-17.3 1.6-5.2 2.4-10.6 4.2-15.8 1.3-3.6 3.6-6.8 5.5-10.2l1.4.7c-.4 1.4-.7 3-1.4 4.4a229.4 229.4 0 0 0-16 53l2.6-.7 2-.5 1-4.7c4.4-16 9.4-32.2 16.2-47.4 8.2-18.6 18-36.7 28.2-54.3 10-17.4 22-33.2 36.9-47.1 15.6-14.6 29.8-30.6 44.9-45.8 6.5-6.5 13.5-12.5 20.3-18.7 8.6-7.7 19.2-12 29.5-16.7 9.5-4.3 18.7-9.1 27.7-14.2 12.2-7 24-14.5 36.4-21.3 4.6-2.6 10-4.2 15.1-5.4 14.3-3.5 28-7.8 41.2-14.9 8.8-4.6 19-7.8 29-8.7 18.2-1.7 36.4-2.2 54.8.4 17.4 2.5 35-1 52.3-4.3 9.2-1.7 18.8-2.4 28.1-1.8 28.3 1.9 56.6 4.3 84.8 7.2a170 170 0 0 1 29.3 6.3c11.7 3.3 23 7.3 35.5 7.2 14.9-.2 27.8 6.2 40 13.6a137.7 137.7 0 0 0 34 15.6c9.7 2.7 16.5 10 23.4 16.6 17 16 34 32 50.3 48.6 7.1 7.2 12.6 16 19 24 1.4 1.6 3.6 2.7 5.4 4.1-.5-1.2-.7-2.6-1.5-3.6-12.2-15.2-23.8-30.9-37-45.2-9.8-10.7-21.6-19.7-32.6-29.4-3.6-3.2-7-6.7-11-9.4-5.7-3.8-11.4-8-17.7-10.1-9-3.1-17.3-6.7-25.5-11.6a100.8 100.8 0 0 0-50.4-16.8c-11.7-.3-23.1-5.5-34.8-7.9-18.7-3.9-37.4-7.9-56.2-10.7-13.6-2.1-27.6-3.5-41.3-3.2-17.3.4-34.7 2.1-51.8 4.7a226.8 226.8 0 0 1-57.7 1.3c-22.5-2.4-44.8-.6-66.2 6.9-7.2 2.5-13.4 7.6-20.5 10.4-7.4 2.8-15.1 4.8-22.9 5.9a62.6 62.6 0 0 0-23.7 8.6c-16 9.5-31.8 19.8-48.8 27.2a181 181 0 0 0-58 40.9c-11.4 11.7-23.5 22.8-35.3 34.1-4 3.8-7.7 7.6-11.8 11.1-1.5 1.3-3.7 1.6-6 1.5 3.4-2.5 4-7.5 10-8 2.7-.2 4.8-7 7.3-10.7 1.6-2.3 3.2-5 5.5-6.4 2.3-1.4 4.8-1.6 4-5.6-.4-1.4 2.2-3.6 3.7-5.1 3-3 8.3-3.3 9-8.6.2-.7 2.3-1 4.7-2l2.7 2.2c.8-1.9 1.8-3.3 2-4.8.5-5.6 3.6-9.6 8.7-10.7 6-1.3 6.3-1.8 5.7-8.3h7.7v-5.8l3.2 1.1c1-2.7 2-5.4 3-8.6l4.8 4.2.9-.5-2-5.4 11.6-2.8.9-3.8 21.8-5.3v-5.7l12-2.5v-5.4c.2.5.6 1 1 1.4 1.8-.7 4.1-.9 5.3-2.1 2.6-2.7 4.7-4.2 7.8.6l1.2-7.1 3.9 5 1.4-4.3c1.5-4.7 7.1-2.9 9.5-6.3 1.3-1.7 3-3.2 5-5.3l3.9 3.3v-8.6l5 6V333l3 1.5c3.6-5 19-7.8 23.7-4.2l2.2-3.9c4.2-.5 12 5.6 10.7-4.1l4.4-3.3 3.7 2.8.2-3.6 25-5.6c0 .4.5 1.6.8 2.5l11.3-3.6c6-1.8 11.7-5 18.3-3.8 1.5.3 3.3-.5 4.9-.8 3.3-.6 6.5-1.2 9.8-1.6 2.8-.4 6.9 1.8 6.1-5.1l8.5 6.5.6-3 9.3-2.1c4.2 3.5 4.3 3.5 8.3-2.8l2.3 6.6 6.1-5.3 2.4 3.1 3.3-2.5 3.4 6.2 1.2-7 1-.2 2 4.8c7.3-1 14-6.4 21.7-1.2 2-2 4-3.8 5.8-5.4 1.8 1.5 3.3 3.9 5 4 2.4 0 4.8-1.6 7.3-2.6l1.2 3.3 2-6.8.5 4h10.5l2.1-2.5 2.3 6.2 7.7-3.3 3.3 3.9 2-3.5 8.6 2.7 1-3.2c2.5 1.5 5 3 7.8 5l1.7-3.1c2.4 3.7 6.7 4 12.2.5 2 .7.7 8.6 6 2.9.2-.3 2.2 1.7 3.6 2 6.8 1 13.7 3.7 20.6 0 1-.5 2.8.4 5 .9 0 .1-.4 1.7.1 2.1 1.4 1.1 3.5 2.7 4.8 2.3 1.8-.5 3-2.7 4.6-4.2l4 7.8 4.3-6.2 2 5.6.6-.7 1.7-1.8.9 1.8a8128.1 8128.1 0 0 1 1.4 3l1-3.4 3.5 6.5 4-2.5 1.7 3.4 3.6-5.8v5c2.3.7 3.9 1.4 5.5 1.7 2.1.3 4.3.1 6.4.5 1.5.3 2.8 1.2 4.9 2 1.8-.9 4.7-3.3 6 2.1l5.6-2.7-1.2 7.5 6.5-6c4.3 2.3 8.7 6.5 12.2 6 5.3-1 5.5 4.7 9.5 4.7 2.5 0 5 1.6 7.6 2.5l.9-1.5.5 4.8 1-1.3c2.2 1.3 4.9 2.1 6.5 4 3.3 3.6 6.4 6 10.9 2l4.6 8.3 2.4-2.7 9.7 7.7c3.7-.5 8 1.2 10.9 6.6 1 1.9 3.1 3.1 4.8 4.6 5.1 4.3 10.3 8.4 15.3 12.8 4 3.3 7.4 7.6 11.9 10 2.7 1.6 6.4 2.4 7.2 5.3 3 10.5 12.6 13 20 18 1 .8.4 3.9.5 4.4 4 4.5 7.6 8.4 11 12.4 2.3 2.6 4.5 5.3 6.4 8.2 1.4 2.2 2.2 4.9 3.3 7.3.3.8.5 1.8 1.1 2.3 5.3 4.4 8.2 10.5 11.7 16.2 2 3.3 6.5 4.9 7.2 9.5.5 3.9 1.3 7.8 2 12.4l-8.5-12.2-13.4-19.2.2 1.6v.3l.1.7.4.7c12.3 15.6 16.4 35.2 25.2 52.5 5 9.6 10.7 18.7 15.5 28.4 6 12.1 12.4 24.3 16.9 37.1 4.5 12.8 7.3 26 9.6 39.3l4.4 2-4.5-21.2c-.8-3.8.3-5.8 4.5-6.5-4 6.2.3 7.5 4.5 8.5-.7 1.7-2.1 3.5-1.9 4.9 1.1 5.6 2.7 11.1 4.1 16.7.2.5.7 1 .6 1.6v.3a60.6 60.6 0 0 1 21.8 25.5c-2-11-1.7-10.7 9.6-14 9.2-2.7 18-6.5 27-10 1.2-.5 2-1.7 2.9-2.6l-.5-1.7c-2.3.6-4.7.8-7 1.7-9.5 3.6-19 7.5-28.4 11.3-2 .7-4.2 1.2-6.3 1.8l-.8-1.8c1.5-1 3-2 4.6-2.7 8.8-3.3 17.8-6.3 26.5-9.8 2.9-1.1 5.3-3.3 8-5l-1-2c-2.2.8-4.4 1.5-6.5 2.4-9.2 3.9-18.3 8-27.6 11.7-1.5.6-3.7-.3-5.6-.6.8-1.8 1.2-4.6 2.6-5.2 8.5-4 17.3-7.4 26-11.1a24 24 0 0 0 8.7-6c-11.5 4.4-22.9 8.7-34.2 13.3-3.9 1.5-6 .9-6.4-3.4l-.4-1.7c-2.4-5.3-2-9.4 4.6-11.4h-3l-5-.8c.5-2 .4-4.6 1.6-5.6 3.4-3 7.4-5.5 11.2-8.1 1.6-1.1 3.3-2 5-3l-1-1.7-18.3 11c-1.4-4-3.3-7.5-3.7-11.3-.2-1.7 2-4.6 3.8-5.4 13.2-6.3 26.6-12.2 39.8-18.3 1.8-.8 3.1-2.4 4.7-3.6l-1.2-2c-2 .9-4 1.5-5.9 2.4l-36.4 18.8c-.7.3-1.4.9-2.1.9-2 0-3.8-.2-5.7-.3 1-1.8 1.7-4.4 3.3-5.1 10.5-4.8 21.1-9.3 31.7-13.9 1.1-.4 2.4-.7 3.1-1.5 1.4-1.5 2.4-3.3 3.6-5-1.7.5-3.5.8-5.1 1.6-11.7 5.5-23.2 11.3-35 16.7-1.3.6-2.4.8-3.3.7a2 2 0 0 1-.9-.4c-.7-.6-1-1.7-1-3.3 0-.8 0-1.8.2-2.9l.1.1.1-.1h-.1l-4.3-6.4c2-1.1 4-2.4 6-3.3 8.3-3.8 16.6-7.3 24.8-11 1.6-.8 2.9-2.4 4.3-3.7l-1-1.7-35.7 15.4-2.8-9 29-13.6-1-2c-7.6 3-15.2 6.2-22.9 9-2.5 1-6.3 2.4-8 1.2-4.2-2.8-4.5-8.2-1.7-12.1l.4-1h-6.4c2.1-2.4 3.2-4.7 5-5.6 12.6-5.8 25.3-11.2 37.9-17 3.9-1.8 8.3-3.6 10-9.6l-55.3 26.7-1.3-2c1.2-1.4 2.3-3.1 3.8-4l31-16.6c5.8-3.2 11.4-6.7 17-10l-1.2-2.8c-4 1.4-8.4 2.3-12.1 4.3-10.8 6-21.3 12.5-32 18.7-2.4 1.4-5 2.3-7.5 3.4l-1.2-1.6c1.3-1.5 2.4-3.4 4-4.3 10.9-6.4 21.8-12.5 32.7-18.7a151 151 0 0 0 11.1-7.3 7.9 7.9 0 0 0 3-3.5c.4-1.4.4-3.4-.2-4.8-.2-.5-2.8-.6-4 0-7 3-14 6.4-21 9.5-1.8.9-3.8 1.4-6 1.3l26.2-16.6-1.3-2c-17.7 9.8-35.3 19.8-53.2 29.8v-1.5l.2-1.8c-.7-.5-1-1-1.3-1.4-.3-.8 0-1.6 1.3-2.5l14.3-9.4 22.8-14.8c1.2-.8 2.7-1.9 4-1.8 9.2.6 18.3 1.5 26.3 2.2.3 5.4-.1 9.4.9 13 3.2 11.8-.2 23.4-.8 35-.7 15.2 4 25.7 17.7 32.4 4.6 2.3 9.5 15.7 7.8 22.4a160 160 0 0 1-4.9 16c-3 8.2 1.5 17.6 10.7 21.8 4.3 1.9 8.4 4 6.6 9.7-2.9 9.3 3.4 13.3 9.7 17.2 2.8 1.7 6.4 3.4 5 7.2-.8 2.5-3.4 5.1-5.9 6-4.2 1.7-8.6 3.2-13 4.7l2.1 1 2.5 1.1 10.2-3.3 1.6 2.8c-1.6 1.2-3 2.8-4.7 4l13.7 6.5c1.2-8.4 1-17 1.2-25.5 0-5.1-3.1-8-8.1-9-4.5-.9-6.5-3.3-6-8.2.5-8-1.7-14.9-8.8-20.1-3.5-2.6-7.4-7.3-7.3-11 0-6.5 2.8-13 4.7-19.4 2.3-7.6 2.7-15.5-1.9-21.8-6.1-8.4-13.9-15.7-20.8-23.7-1.5-1.7-3.2-4.3-3-6.5 1-15.7 2.4-31.5 3.8-47.2.3-3.4-.6-5.3-4-6.6a145 145 0 0 0-42.4-10.7c-4.9-.3-10.5-.6-12.3-6.6-1.9-6-6.2-12.2.8-18.3 4-3.4 3.3-8.9 0-12-5.4-5.4-5.8-11.5-5.6-18.5.4-10.6-3-23-15.1-23.4-2.7 0-5.5.5-8 0-2.3-.5-5.2-1.5-6.3-3.3-3.4-5-5.9-10.7-9.1-16-2.5-4-5.3-7.8-11.2-7.5-2.6.1-5.2-1.8-7.8-2.8-2-.8-4-2.3-6.2-2.4-8.4-.6-16.7-1.8-25.2.5-8.9 2.4-9 1.6-11.4-7.2-.2-1-.4-2-1-2.8a42.8 42.8 0 0 1-9-22.6c0-2-2.1-4.2-3.9-5.5-5.5-4.2-11-8.5-17-11.9-9.2-5.2-19-9.3-28-14.7-3.3-2-5.3-6.1-7.9-9.3-1.6-2-2.6-5.1-4.7-6a54.6 54.6 0 0 0-31.4-6.3c-2.7-10.1-9.7-11.7-16.1-4.7-2 2.1-4.3 4-6.3 6-8 8.5-15.4 8.1-22.8-.7-1.5-1.7-4.2-2.4-6.4-3.6l-1.2 2c-1.4-9-7.5-10.2-14.6-10.1-1.8 0-4.6-1.6-5.2-3.2-2.2-5.4-6.4-7-11.5-7-10.7.3-21.4 1.1-32 1-7 0-15.7.6-19.8-5.5-5.7-8.4-12.8-7.3-19.7-5.2-8.2 2.4-16.2 3.4-23.1-1.3-9.1-6.3-14.3-3.8-19.2 4.9-2 3.7-5.5 3.1-8.2-.4-3-3.8-6-7.5-9.2-11.1-6.2-7-6.6-6.8-13.8-.8-4.7 4-9.2 8-16.5 4-2.6-1.4-7.6-.2-10.7 1.4-6.4 3.5-13 5-20.1 5.3-1.7 0-3.4-1.9-5-3l.7-2.2c-4.4 0-9.4-1.4-13 .3-8 4-18 4.8-24 12.8-.5.6-1.6 1-2.5 1.1-6.4.6-12.8.6-19 1.5-7.2 1-14.5 2-21.2 4.4-3.1 1.2-5.3 5.7-7.2 9-1.2 2.3-1.2 5.3-1.8 8-1.4 6.1-5.8 9.8-11.9 8.6-8.5-1.5-17-3.5-25.1-6.3-4.8-1.6-9.1-2-13.2.6-4.4 2.8-8.3 6.3-12.7 9-3.5 2.3-7 4.7-11 5.8-16.3 4.8-32.5 9.5-44.7 22.4-1.1 1.2-3.4 1.3-4.9 1.8-1.5 6.6-3 13.8-4.8 20.8-1.2 4.5-3.6 5.3-8.2 3.7-3-1-7.2-.4-10 1-2.6 1.3-4 1.4-6.7.4-3.1-1.3-7.8-2.8-10.2-1.4-6.6 4-12.7 9-18.2 14.3-3.6 3.4-5.5 8.5-8.7 12.4-4 4.9-8 10.3-13.1 13.7-6 4-10 8.6-11 15.8-1.1 6.5-7 12-11.7 10.6-6-1.9-9 1.5-12 5.4-7.2 9-14.8 17.7-21.7 27-1.9 2.5-3.3 7-2.4 9.7 1.8 5.3-.7 6.7-4.5 7-3.6.2-4.8 2-5.9 5-2.8 7.4 0 14.3 1.3 21.5.5 2.4.2 5.2-.5 7.6-1.7 6.3-7.1 7.2-12.6 8.2-9.3 1.8-17.3 5.3-20.6 15.3-3 8.7-6.1 17.3-9.3 25.9a6.2 6.2 0 0 1-2.4 3c-7.2 4.1-9 10.2-7 17.8.4 1.5.7 3.3.1 4.6-2.6 6.6.5 11.4 4.8 15.4 4.9 4.6 3.9 8.9.5 13.3-10.8 13.8-21.5 27.7-32.6 41.3-4.7 5.8-8.2 11.3-6.2 19.3 1 4.3 1 9 1 13.5l9-3.7c0-4.2 1.7-5 8-4.5"/><path fill="#501936" fill-rule="nonzero" d="M1211 661l-.8.1h-1.4l-1.6-.5-1-.2c.5 1.5.8 3 1 4.5l18.7-6 .8-1.6 1.1-2.4-.5.2c-5.5 1.9-10.8 4.2-16.4 5.9M1203.5 652.6c.9 2 1.7 4 2.3 6.2.8-1.2 1.6-2.5 2.7-3 3.7-1.5 7.7-2.4 11.6-3.6l10.7-3.6 2-4c-9.5 3-18.9 6.2-28.3 9.3l-1-1.3M358 904.6c7.2 17.4 14.9 34.7 22.5 52 8.8 19.6 17.7 39.4 33.2 54.6 10.2 9.9 22 18 33.2 27 3.7 3 7.2 6.8 11.5 8.7 10.5 4.7 17.4 13 24.7 21.3 8.9 9.9 16.7 21.5 29.6 26.3 16 6 29.2 16.3 43 25.7 13.7 9.4 26.5 20 40.5 28.8a224.2 224.2 0 0 0 33.2 16c10.5 4.4 21.8 6.7 32 11.5a63.3 63.3 0 0 0 34.6 6.9 147 147 0 0 1 23-1.4c18 .8 35.7 2 53.6-1.7 15.2-3.1 30.8-4.7 46-8 11.5-2.5 23.1-5.6 33.9-10.4 14.7-6.5 28.7-14.5 42.8-22.3 13-7.2 25.7-14.8 38.3-22.6a119 119 0 0 0 15.6-11.8c9.8-8.5 19.1-17.4 28.7-26 7.2-6.4 14.5-12.7 21.8-18.8 1.8-1.5 4-2.9 6-3.3 22.5-4.1 39.2-18 54.5-33.1 14.4-14.3 26.8-30 32.2-50.6 3.3-13 8-25.6 12.4-38.3h-3l-.3 1c-6.2 18.2-11.3 37-19.4 54.3-6.8 14.9-19.5 26.2-31.3 37.5a117 117 0 0 1-47.4 26.6c-6.4 2-11.5 8.2-16.8 12.9-14.1 12.5-27.7 25.6-42.3 37.6-7 5.8-16 9.3-23.8 14.1-17 10.4-33.2 22-50.8 31-15.2 7.6-31.5 14-48 17.8-29.3 6.7-59 11.8-89.4 11.2-4.8 0-9.6-1.1-14.4-1-8.2.2-16.5.5-24.6 1.5a50.3 50.3 0 0 1-28.4-5.1c-12.6-5.8-26-9.5-38.8-14.8-9.4-3.9-19-7.9-27.4-13.5-16.4-11.1-32-23.5-48-35.1-12.8-9.2-25.7-18-40.6-24.3a62.8 62.8 0 0 1-22-19 110.8 110.8 0 0 0-26.8-25.1c-6.3-4-11.6-9.5-17.4-14.4-3.6-3-6.9-6.8-10.9-9.4a113.1 113.1 0 0 1-38-45c-8.3-15.8-14.7-32.6-22-49-3-6.9-5.9-13.8-9.3-20.5a241.2 241.2 0 0 1-20.1-63.8c-.8-3.8-2-7.5-3.3-11.1l-5.2 2.2c1.7 9.4 2.7 19 5.5 28.2 4.8 15.2 11.2 30 17.3 44.7M1136.2 545.8c-6.5-10.7-13.8-21-19.8-32-8.8-16.3-16.3-33.3-25.4-49.4-8-14-14.7-28.9-27-40.1-10.9-10-21.3-20.7-32.2-30.7-5.4-4.9-11.1-9.9-17.5-13-12.6-6.2-25.8-11.3-38.8-16.5-10-4-20-8.1-30.4-11-7.7-2.2-16-3-24-3.5-7.6-.6-15.3.2-23-.3-10.6-.6-21.1-2.1-31.7-3-17.5-1.3-35-2-52.5-3.8-21.5-2.2-42.7-4.7-64.4-.7-14.4 2.5-29.1 3.4-43.7 3.6-8.5 0-17-3.1-25.5-4-10.7-1.2-21.5-1.5-32.3-2.2a93.3 93.3 0 0 0-50.3 10.6c-5.7 3-11.7 5-17.3 8.1-14.5 8-27 18.7-39.5 29.4a77.1 77.1 0 0 1-39.6 17.8 76.9 76.9 0 0 0-42.1 17.4c-16.2 14.3-33 28-46.2 45.3-9.7 12.8-21.7 23.6-29.7 38.1-7.6 14-17.9 26.5-27 39.7-3.2 4.8-6.7 9.5-9.2 14.6a230.4 230.4 0 0 0-19.2 58.5l5.3-1.4.3-1.5a445.5 445.5 0 0 1 17.1-55.2c2.5-6.8 8.5-12.3 12.7-18.5 8.4-12.2 16.5-24.6 25-36.7 15.5-21.7 31.2-43.2 52-60.2 10.4-8.4 20.3-17.3 30.8-25.5 3.6-2.8 8.4-4.3 13-5.6 11.8-3.2 23.9-5.8 35.8-9 10.5-2.7 19-9.2 27.1-16 9.5-8 19-16 28.9-23.2a118.3 118.3 0 0 1 73-22.3c19.2 2 38.3 5.2 57.5 5.4 16.5.2 32.9-3.7 49.4-4.7 14.1-.8 28.5-1 42.6 0 22.7 1.5 45.3 4.2 68 6.2 14.7 1.4 29.6 4 44.3 3.1 24.3-1.4 46 5.7 67.5 15.4 11.7 5.4 24.1 9.4 35.5 15.5 6.5 3.5 11.4 10 17.1 15 8 7.2 16.4 14 24.1 21.5 7.3 7 15.3 14 20.5 22.4 13 20.9 25.4 42.2 35 65 4.2 9.9 10.3 19.1 16.5 27.9 13 18.3 19 39.3 25.3 60.5 1.9 6.3 3.4 12.6 4.7 19l3.1.7a225 225 0 0 0-6.1-23.1c-5.3-16.1-8.7-32.9-17.7-47.6M1142.8 835.1c-5.4 11-11.4 22-16.8 33v7.5c3.5-7.7 7.4-15.3 11.6-22.7 5.8-10.1 12-20.3 12.8-32.6v-.3l-.2-2.4-2.6 1.2-1 5c-.8 3.9-2 7.8-3.8 11.3M1166.4 1055.8l-46-20.5c6.3 7.5 40.9 22.8 46 20.5M1167.5 962.6c.8 1.4 1 1.9 1.2 2 13.1 4.3 26.2 8.7 39.4 12.8 1.3.4 3.1-.7 4.7-1.1l-.3-1-45-12.7M1119.2 1046.6l36.4 19.8 1.5-3-37-18.7-1 1.9M1138.3 1012.7c13.7 6.6 27 13.8 42 17-7.3-4-14.8-7.5-22.5-10.5-6.3-2.5-13-4.4-19.5-6.5M1137.7 1012.5l.6.2-.6-.3v.1zM1208.7 881.3c10.6 1.9 21.2 4.8 32.2 4l.1-2-32-4.4-.3 2.4M1142.8 996.5l40.5 13.6.6-1.8c-13.6-4.1-26.2-11.5-40.6-13.3l-.5 1.5M1150 1074.5l.9-1.8c-12.8-5.5-24-14.3-38.5-16.2l37.7 18M1147.1 1004.5c.8.7 1.4 1.8 2.4 2.2 9.3 3.6 18.6 7.2 28 10.5 1.7.6 3.9 0 5.8 0-5.1-2.8-10.2-5-15.5-6.7-6.8-2.2-13.8-4-20.7-6M1147 1004.4h0zM1242.5 891.7L1207 887c11 5.4 29.7 7.6 35.5 4.6M1223.6 944l.4-2.3-37-6.3c12 3.6 23.9 8.6 36.6 8.5M1220.6 933.6l.3-1.7-34-6.3-.3 1.7c11.4 1.8 22.1 7.1 34 6.3M1176.2 977.3c9.2 2.7 17.6 8.1 27.6 8.2l.5-1.7-27.5-8.4-.6 1.9M1237.6 903l-22.2-3.4-.2 1.7 22.2 4.2.2-2.5M1220.6 914.1h23.6l-23.4-2.3-.2 2.3M383 1043c-9.7 10.7-23 17.8-30.1 31l31.6-29.5-1.4-1.5M437.9 1150.2l19.1-35.5c-4.9 4.9-20.8 32.2-19.1 35.5M457.1 1114.4l-.1.3.2-.2zM363.2 1079.8a817.3 817.3 0 0 0 30.5-26.3c1.1-1 2-2.5 3-3.7a152 152 0 0 0-33.5 30M422.5 1124.5l-6.8 10.4 2.2 1.3 19-32.3c-4.9 6.9-9.7 13.7-14.4 20.6M437.4 1102.8l-.6 1.1.7-1zM420.5 1102.7c-6 9.1-15.6 15.5-17.9 26.9l19.3-25.9-1.4-1M420.4 1145.2c4.2-4.3 7.8-9 10.9-14 2.3-3.7 4-7.8 6-11.8a94.3 94.3 0 0 0-16.9 25.8M437.4 1119l-.1.4.2-.3zM400.2 1067c-1.7.8-3.7 1.2-4.9 2.4-5.7 5.4-11.3 11-16.7 16.6-1.3 1.4-2 3.3-2.9 5 3.5-4 7.8-6.9 11.5-10.4 4.6-4.2 8.7-9 13-13.5M400.4 1067h-.2.2zM431.8 1141l2 1.2c5.8-8.7 12-17.2 15.1-27.5l-17.1 26.3M449 1114.4v.3l.1-.2zM393.5 1059.2l-23 19.6 1.4 1.5 22.8-19.8-1.2-1.3M382.4 1050.6l-20.6 21.6 1.2 1.2 20.6-21.7-1.2-1.1M466.9 1156l1.6.5 7.5-18.8-1.6-.7c-2.6 6.2-7.4 11.7-7.5 19M425.4 1109.5l-13.3 16.7 1.5 1.3 13.3-16.8-1.5-1.2M805.9 1226c2.7 16.5 4.3 33.2 10 49l1.8-.4-10.3-48.8-1.5.3M797.9 1227.1c2.8 15.6 2 31.8 9.3 46.6l-7.7-47-1.6.4M705 1264.8l2.7.2 2.8-42.1-2.4-.2-3 42.1M716.3 1267.9h2.2v-44.3c-1.2 14.6-4 29.4-2.2 44.3M734.6 1257.3l1.4.1v-24.8h-1.4v24.7zM302.9 900.2l-.8-1.5-27.8 13.6 1.2 2.3 27.4-14.4M1216 548.4c1.4-1 2-3.1 2.8-4.7l-1.7-1.3c-3 2-5.7 4.4-8.8 6-8 4.1-16.2 7.8-24.2 12-1.8.9-3 2.9-4.5 4.5l27-11c3.3-1.5 6.5-3.3 9.4-5.5M1234.5 568.2c1.3-1 2-3 3.6-5.7l-42.6 22.3.8 1.6c.7 0 1.4 0 2-.3 8.6-3.9 17.3-7.7 25.8-11.7 3.6-1.7 7.1-3.8 10.4-6.2M1207.2 648.7c15-4.2 30.3-7.6 42.8-18l-43.4 16.2.6 1.8M1206.2 510.6l-1.2-1.6c-9.2 4-18.4 8-27.6 12.2-3.6 1.6-7 3.6-10.5 5.4 2 0 4.4.6 6.3 0 7-2.7 14-5.4 20.7-8.6 4.3-2 8.2-5 12.3-7.4M1166.7 526.7h.2l-.2-.1zM1146.8 490.2l38-21-1.6-2.8-36.5 23.8M1145.8 490.8zM1204.6 611.3l1 1.8 22-10.6-1.4-2.9-21.6 11.7M1188.3 530c5.5-5 14.5-3.2 18.6-11.2l-19.9 9 1.3 2.2M1218.5 594.1L1203 602l1.4 2.4 15.4-8-1.2-2.3M841.4 1210.6c6.4 15.6 6 33.1 13.7 48.3l2-.5-13-48.5-2.7.7M875.6 1201.8c4.2 14.2 8.6 28.4 13 42.5.5 1.5 1.6 2.7 2.4 4l1.5-.6c-2.7-8.8-5-17.6-8-26.2-2.6-8-5.8-15.6-8.8-23.3 0 1.2-.5 2.5-.1 3.6M887 1256l-15.8-43.5c-.5 9.1 10.6 39.7 15.9 43.6M888.6 1210l-2.3-5.8-1.9.8c4.9 13 9.7 26 14.7 38.8.4 1.2 2 1.9 3.2 2.8-.5-2-.7-4.1-1.5-6l-12.2-30.6M830.5 1221.5l7.6 34.1c.3 1.3 1.8 2.2 2.7 3.3l1.6-1-11-36.8-1 .4M847.7 1259.1l-9-39.4c-1 12.4 4.7 35.3 9 39.4M911 1232.8l1.7-.6c-4-11.7-5.8-24.2-13.3-34.6l11.6 35.2M891.8 1200.3l10.6 28.7 2.9-1-11.6-28.4-1.9.7M787.6 279.3l-2.9-37.1-1.2.1 2 37.2 2.1-.2M893 265.7l-1.6-.2-3 26.3 2 .3 2.7-26.4M820.3 249.7h-.5V282h.5v-32.3zM839 283.4l-1.5-25.6v25.7l1.6-.1M837.5 256.6h-.1v1.2-1.2zM563 1221.5l2.3.8 12.7-35.8a98.3 98.3 0 0 0-15 35M552.5 1177.6c-9.4 12.2-17.3 30.2-15.5 35 3.7-7.8 7.3-15.4 10.7-23 1.6-3.4 2.8-7 4.8-12M544.3 1180.4c-4.4 8.6-10.7 16.2-13.5 25.7l3 1.3 11.9-26.4-1.4-.6M512.2 1164.7l-14.7 25.4 2 1.2 14.4-25.7-1.7-1M1027 1136.2l37.4 32.4c-.2-5.6-30.6-31.4-37.4-32.4M1032.3 1128.8l33 27.5 1.8-2.4c-11-9-22.2-18-33.4-26.9l-1.4 1.8M1017.5 1148.3l32.4 32.3 1.5-1.6-33.9-30.8M977 1166.4c6.4 10.3 9.4 22.4 17.9 31.6l2.2-1.3-18.3-31.1-1.8.8M1052.2 1169.7l1.7-1.8-30-27.3c7.7 11.8 18.4 20 28.3 29.1M1105.3 416.9c6.5-6 12.8-12.2 19.4-18.2 4.5-4.1 9.3-8.1 14.5-12.6-1.5-.3-2-.6-2.1-.4l-36.1 34c1.5-.9 3-1.7 4.3-2.8M1100.6 420c.2 0 .3-.2.4-.3l-.4.3M1082.8 398.6l29.5-30.4-.9-.8-30.3 29.3 1.7 1.9M1093 399.4l27.2-26.9-.1-.2-27.7 26.2.6.9M1103.5 359.9l-1.5-1.2-21.8 23.5 1.2 1.2 22-23.5M672.6 281.4l-10-39-1.6.5 9.5 39 2.1-.5M633.6 263.4c2.6 8.1 5.1 16.3 8 24.4.3 1 2.1 1.5 3.3 2.3-3-9.2-6.2-18.3-9.3-27.5l-2 .8M682.8 281.4l-11.3-36.6-1.5.6 11 36.5 1.8-.5M610 298a50.3 50.3 0 0 0-10.2-24.4l8.4 25 1.8-.6M603.9 300.8l-3.9-8.5-4-10.2c-1.2 8.8 2.3 16.5 7.9 18.7M1072.6 1085.9c5.8 6.4 36.5 23.1 41 21.4l-40.2-22.7-.8 1.3M1095.3 1126.6l-42.2-22.4c3.3 6 36.2 23.6 42.3 22.4M1116 1098.7l-39.3-20.2c12 11 32.8 21.5 39.4 20.2M1126 1095.2l-33.8-18.5c8.2 9.2 28.7 20.5 33.8 18.5M1108.9 1077.9c6.2 4 11.9 9 19.8 9.2l.9-2-20-8.8-.7 1.6M560.7 302.7l-12.1-23-1.4.8c2.1 3.9 4.3 7.7 6.2 11.6 2 3.8 3.6 7.7 5.4 11.6l1.9-1M451.2 376.8l-26.8-30c2.4 9.1 18.7 27.7 26.8 30M442.3 381.5L420.6 354a56 56 0 0 0 21.7 27.5M434.2 389.9l-24.6-31.6a72 72 0 0 0 24.6 31.6M705.5 277.7l-9-37.6-1.7.4 8.6 37.7 2.1-.5M308.5 495.7l31.3 13.4c-9.1-7.4-20.3-10.2-30.6-14.8l-.7 1.4M526.2 324.2l-12.6-28-1.7.6c4.1 9.5 5.8 20.1 13 28.1l1.3-.7"/><path fill="#501936" fill-rule="nonzero" d="M377.4 885.8v-15.2c-4.2-13.3-7.7-26.8-11.7-40.2a70 70 0 0 0-3.2-8.4L358 823c4 10.3 7.3 21 9.7 31.7 2.3 10.7 5.5 21.1 9.6 31M1057 932.2l-10.5 16.3-13.3 21.3h5.1c-2 1.5-3.1 2.3-4.4 3-1.4.9-3.9 1.2-4.3 2.3-3 8.5-9.6 14.2-15.1 20.6-13.8 16-30.2 28.9-48.8 39.3a1394 1394 0 0 0-59.7 36.2c-13.5 8.5-26.1 18.4-39.8 26.5a396.3 396.3 0 0 1-44.7 22.8c-17 7.3-34.7 12.8-52 19a89.4 89.4 0 0 1-50.3 2c-16.4-3.7-32.6-7.7-49-11.5-1.8-.5-3.8-.7-5.7-.7-9.3.4-18.8.3-28 1.5-11.4 1.5-21-3-28.9-9.3-10.6-8.6-22.6-14.6-33.8-21.9-10.8-7-20.7-15.3-30.8-23.4-11-9-22-18.2-32.8-27.4-15.2-12.8-30.9-25-45-38.9-17-16.5-32.6-34.3-39.2-58.3a58.1 58.1 0 0 0-9.8-17.8l-2.7 1.3H409a201 201 0 0 1 20.2 37.4c6.6 15.7 18.7 27.4 30.5 39 7.6 7.4 16.6 13.1 24.5 20.2 9.2 8.3 17.9 17.3 26.8 26 10 9.5 19.2 19.7 32 26.3 12.4 6.6 23.9 15.2 35.6 23.2 8.8 6 17.1 12.7 25.9 18.7 17.7 12 37.8 13.6 58.3 12.4 12.6-.7 24.8.3 36.4 4.9 11 4.4 22 6.7 33.8 6.6 3.9-.3 7.7-.3 11.5-1 21.7-3.2 42-10.8 62.8-17.2 19.3-6 37.4-14.6 54.9-24 17.3-9.5 32.8-22.3 49.5-33 16-10.3 32-20.8 49-29.2a146.3 146.3 0 0 0 45.2-31.7c14.4-16 27.8-32.9 41.5-49.5 2.4-3 3.8-6.7 6-10 4.7-7.4 10-14.4 14.4-22H1057zM1109.2 856.7h.3a207 207 0 0 0 13.7-32.6h-1.2c-2.3 0-4.6 0-7-.3a197.2 197.2 0 0 1-12.4 33h6.6zM1109 532.6c-5.4-6.3-11.3-12.2-16.7-18.5-7.6-9.1-15.9-18-22.4-27.9-8.9-13.6-16-28.5-24.5-42.4a118.8 118.8 0 0 0-39.1-41.7c-10.8-6.4-21-13.6-33.4-16.7a254 254 0 0 0-67.9-6.2c-14.7.3-29.3 1.2-44.1-3-10.1-2.8-21.3-2-32-2.4-4.9-.2-9.7.6-14.5 1-11.5 1.2-23 2.4-34.5 3.8-10.3 1.2-20.6 4.2-30.8 3.9-23.7-.8-47.4-3-71-5-9.4-.8-18.8-4-28-3.4-14.6 1-29 4-43.4 6.6-6.6 1.3-13.4 3-19.2 6.3-12.8 7-25.2 14.8-37.3 23a169.5 169.5 0 0 1-52.1 22.7c-18.3 4.9-37.1 9.6-51.1 24-12.1 12.4-24.6 24.4-36.3 37a310 310 0 0 0-37.6 51.6c-3.5 6.4-5.9 13.4-8.4 20.3-5 14.2-10.4 28.3-14.4 42.7a93 93 0 0 0-1.2 4.8l4-1a343.1 343.1 0 0 1 22.3-62.4c6.8-13.9 16.7-26.3 26.4-38.5a535.6 535.6 0 0 1 36.3-42c9.3-9.4 19.2-18.6 32.8-22.6 17-5 33.8-10.4 50.3-16.7 18.4-7 36.2-16 51.4-28.6a88.8 88.8 0 0 1 38-17.2c12.9-3 26.2-4.9 39.4-5.3 10.3-.4 20.6 2.4 31 3.5 17.8 1.8 35.6 4.3 53.5 4.7 13.7.3 27.6-2 41.4-3.5 14.5-1.5 29.1-3 43.6-5a115 115 0 0 1 53.1 5c3.7 1.3 8 1 12 .7 28.9-2.3 57.6-1.7 85.7 5.8 8.2 2.3 16.4 5.7 23.9 9.9 18.1 10 33.6 23.2 44.6 41.1 7.7 12.5 16.5 24.4 22.6 37.7a140 140 0 0 0 31.8 42.2 84.9 84.9 0 0 1 26.3 57.8c1 12 3.8 24 6.8 36l3.2-.5a242 242 0 0 1-7.6-42.2c-1-14-3.3-28.1-13-39.4"/><path fill="#501936" fill-rule="nonzero" d="M1097.3 584.7c-4-20.2-6.9-40.7-20.2-57.7-10.6-13.6-20.4-27.8-30.8-41.6a365.4 365.4 0 0 0-20.4-25c-6.5-7.2-13.1-14.6-21-20a383 383 0 0 0-63.2-34.8 63 63 0 0 0-19.4-5.1c-11.9-1.1-23.9-1-35.8-1.2-3.7 0-7.4.1-11 .6-11.2 1.6-22.4 4-33.7 5-13.2 1.3-26.6 1.4-39.8 2.4-7 .6-14.2 1-20.5 3.7-20.7 8.8-41.6 6.8-62.5 2.4-10-2-19.6-5.4-29.5-8.1-17.7-5-35.3-1.9-52.7 1.4a264.5 264.5 0 0 0-55.9 16.1c-16 6.9-32.8 12.3-49.1 18.5-11.3 4.3-23.2 7.8-33.7 13.6-15 8.5-29.3 18.4-43.4 28.4-8.4 6-15.8 13.3-23.6 20.2-4.1 3.7-8 7.7-11.8 11.8-2.4 2.7-5 5.5-6.6 8.6-6.3 13-12.9 25.8-18.4 39-5.7 14-11.4 28-15.5 42.4l6-1.6 2-7c3.5-11.3 9.4-21.9 14-32.8 1.6-4 2.2-8.5 4.1-12.4 10.8-21.4 24-40.8 44-55 15.7-11.4 30.7-23.9 47-34.6 14.8-9.8 31.6-16 49-20.7 10-2.8 19.4-7.2 29.1-10.9 8.5-3.1 17-6 25.3-9.5 17.6-7.5 36.5-7.4 55-8.8 17.9-1.4 35.4.5 52.9 5.7 13.2 3.9 27.2 5.7 41 6.7a44 44 0 0 0 20.6-4.6c12.4-5.8 25.3-8 38.7-8.5l46.9-1.6c1.7 0 3.5-.1 5-.7 20.7-7 42.3-7.1 62.9-3.3 16.8 3.2 32.8 12 48.6 19.6 11 5.3 21.4 12.4 31.5 19.4 4.9 3.5 8.3 9 12.9 13 9.1 8 14.5 18.5 21.1 28.3 6.1 9.2 15.6 16 22.8 24.5 6.3 7.5 12 15.5 16.9 24a162.8 162.8 0 0 1 18.7 65.6 335 335 0 0 0 4.3 27.9c2.1-1.9 4.3-3.5 6.7-5l-.5-2.9c-2.2-11.9-5.7-23.6-8-35.4M400.1 856.7h8.3c-7.2-13.4-11-28.2-15-42.8l-6.6 1.7c2.7 9.2 5.5 18.4 8.1 27.7a82 82 0 0 0 5.2 13.4M1055 856.7h9.3c5-11.6 9-23.6 13.2-35.4l3.2-9.3a65 65 0 0 1-7-5.2l-7.4 21.4c-3.5 9.6-7.2 19.1-11.2 28.5M484.4 976a191.4 191.4 0 0 1 35.1 27.2c9.8 9.6 19 19.8 29 29 8.7 8.2 18.3 15.4 27.2 23.3 3.6 3.1 6.3 7.3 9.8 10.6 12.6 11.8 26.3 22 42.4 28.7 5 2 9.6 5.2 14.7 6.4 11.6 2.8 23.3 5 35 6.6 12.4 1.7 24.8 2.7 37.2 3.9l27 2.3c13 1.2 23.9-5.2 35.2-9.9 16.2-6.6 32.1-14.1 48.5-20.4 12.2-4.7 24.6-8.9 35.6-16.3 5.9-4 12-7.6 18.1-11.3 4.8-3 9.6-5.6 14.3-8.6 4.9-3.2 9.2-7.1 14.3-9.8a63 63 0 0 0 22.9-23c11-16.8 23.5-32.3 40.3-44.1a266.5 266.5 0 0 0 40.4-35.5h-11c-6.1 6-12.4 12-18.9 17.8-6.2 5.6-14.4 9-20.8 14.5a114 114 0 0 0-26.6 33 81.2 81.2 0 0 1-17.4 20.7c-10.8 9.8-22.7 18-36.2 24.4-11.2 5.4-20.5 14.9-31.3 21.5-7.3 4.4-15.7 7-23.7 10.3-13.2 5.3-26.6 9.7-39.7 15.5a108.3 108.3 0 0 1-54.5 10.8 79 79 0 0 0-18.4.7c-18.1 2.5-35.6-2.3-53.4-4.3a75.4 75.4 0 0 1-35-12.8c-11-7.6-21-16.7-31.5-25.2l-16-13.2c-17-14.4-36-26.5-49.9-44.6-12-15.8-28.3-27.2-44-39.2a96.6 96.6 0 0 1-27-30h-6.6c5.1 9.4 10.7 18.4 18.3 26.1 5.2 5.3 10.3 11.1 16.6 15"/><path fill="#501936" fill-rule="nonzero" d="M539.7 966a81.8 81.8 0 0 0 30 26.5c7.1 3.1 13.8 8.7 18.7 14.9 9.4 11.9 17 25.1 26.1 37.4 3.7 5 8.3 10.1 13.6 13.2 13.1 7.6 23.1 20.2 38.7 23.7.7.1 1.3.8 2 1.1 12 5.1 23.6 11.4 37.6 9.5 9.3-1.2 18.8-.6 28.2-.8 3 0 6 .4 8.7-.4 16.6-4.7 33.4-9.2 47-21 2.6-2.2 6.5-3.4 10-4.3 8.6-2 17.5-3 26-5.6 22.3-6.6 37.2-23.1 51.6-40.1 5.6-6.6 10.5-13.8 16-20.4 4.6-5.4 10.2-10 14.5-15.6 5.6-7.4 10.4-15.3 15.5-23 2-3 4-6.1 5.6-9.4 3-6.3 6-12.6 9.3-18.7l-.4-.8h-2.6l-3.4 7a204.3 204.3 0 0 1-41.1 58.1 75.8 75.8 0 0 0-11.4 13.8 117.8 117.8 0 0 1-32.2 33.5c-8.5 6-19.2 9.2-29.2 12.5-12.3 4.1-25.3 5-36.3 13.7-7.3 5.8-17 8.7-26 12-6.4 2.4-13.4 3.5-20.1 4.8-2.2.4-4.9.2-6.8-.8-6.6-3.2-13.2-1.5-20-1.2-10.1.4-20.1-1-29.5-5.4-6.2-3-13-5.2-18.8-8.7-8-4.7-15.7-9.8-22.6-15.8-9.4-8.2-18.4-17-26.7-26.4-6.4-7.2-11-16-17.1-23.3a65.9 65.9 0 0 0-27.2-20.8c-8.4-3-14.3-8.6-19.8-15.4a163.4 163.4 0 0 0-35.3-34.7h-6.6l1.9 1.3a133 133 0 0 1 32.1 29.7M1072.3 583a46.1 46.1 0 0 1-4-8.4c-5.3-13.8-11.1-27.5-15.9-41.4a94.5 94.5 0 0 0-24.5-36c-9.2-9.2-20.2-16.7-30.4-25-6-5-11.9-10.3-18.1-15-7.2-5.5-14.1-11.9-22.2-15.4-14-6-29-9.4-43-15.2-16.7-6.8-33.9-9-51.5-7a530.8 530.8 0 0 0-50.2 8c-9.8 2-19.7 5-28.3 9.9-17.8 10-35.9 9.1-54.3 4.3-11.6-3-22.7-7.7-34.2-10.8-5.2-1.4-11-1-16.4-1-9 .2-17.3 4.7-26.9 2.8A101.6 101.6 0 0 0 600 437c-14.7 4.8-29.5 9-44.4 13.2a180 180 0 0 0-65.9 32.6c-19 15.4-34 34.6-49 53.8-4 5.1-9 9.7-12 15.4a291 291 0 0 0-16.6 37.5 249 249 0 0 0-4.5 14.8l5.5 4.8c3.2-14.6 7.1-29 14.9-41.6 9.3-15.2 20.3-29.4 30.6-44a211.2 211.2 0 0 1 36.8-37.2 177.4 177.4 0 0 1 54.2-31c11.3-4.2 23.4-6.4 35-9.7 5.3-1.5 10.3-3.4 15.4-5.2 17.2-6 34.7-6.6 52.5-4.2 4.6.6 9.7 1.1 13.8-.3 19.8-6.7 38-.3 55.4 7.2a72 72 0 0 0 60.8-1c13.8-6.1 28.8-9.7 43.4-13.6 9.5-2.5 19.3-4.3 29-5 18.5-1.5 37-2.3 54.7 5.4 4.8 2 10.3 2.2 15 4.4a594.6 594.6 0 0 1 30.7 15.8c5.6 3 11 6.2 16.3 9.9 6 4.2 11.7 9.2 17.7 13.6 5.2 3.7 11 6.5 15.8 10.6 6.4 5.5 12.1 11.8 17.9 18 6 6.4 11.7 13.1 17.7 19.6 7.8 8.5 10.4 19.6 15 29.7 4.4 9.8 7 20.4 11.7 30.2a74 74 0 0 1 6.2 32.2c2.7 4 5 8.2 6.7 12.7 2-15.2.6-29.5-8-42.7M438.7 856.7h4.4c-5.8-9.7-11-20-16.3-30-3.3-6.3-6-12.8-8.3-19.4l-4.3 1.1a453.3 453.3 0 0 0 24.5 48.3M995.8 856.7h7.1a144.2 144.2 0 0 0 21.5-37c3.8-9.9 7.7-19.7 11.7-29.5a60 60 0 0 1-6.7 3c-4.4 10.4-9 20.7-14.2 30.7a303.9 303.9 0 0 1-19.4 32.8M944.7 846.3c-4 3-7.2 6.4-9.6 10.4h6.4c3.2-4.3 6.9-8.3 11.4-11.8a97 97 0 0 0 15.6-16.9c7.5-9.5 14.5-19.4 21.6-29.1l2-3-6-1.3c-7 9-13.8 18.1-20.4 27.4-6.3 8.8-12.2 17.6-21 24.3"/><path fill="#501936" fill-rule="nonzero" d="M584.4 962.3a169.2 169.2 0 0 0 49.1 42.3c5.4 3.2 11.1 5.7 16.6 8.7 11.3 6.3 18 17.2 26 26.7a95 95 0 0 0 33.6 25.8 31 31 0 0 0 20.2 1.2c9-2.8 17.2-8.3 25.4-13.3 20.4-12.5 40.5-25.4 60.7-38.1 4.8-3 9.5-6 14-9.3 12.1-8.5 25-15.8 32-30 3-6.2 8.9-11.2 14-16 5.2-5 12-8.6 16.7-14 3.1-3.6 6-7.3 8.8-11.2h-6.6c-5 6.9-11.5 12.5-18.8 16.7a48.5 48.5 0 0 0-20.6 23.3c-3.6 8.3-10.5 11.9-17.3 16.2-10.2 6.5-20.4 13-30.5 19.7-16.4 10.8-32.7 21.8-49.2 32.4-7.3 4.7-15 8.7-22.8 12.6a24 24 0 0 1-19.6.3c-3.3-1.2-7-1-10.4-2-10.2-3.2-16-11.7-22.8-19-15-15.7-29-32.5-49.3-42.1-10.2-4.9-20.6-9.7-28.8-17.8-2.3-2.3-4.7-4.7-6.8-7.1L570.6 936c-2.9.5-6 .7-9.3.7h-.8c8.1 8.4 17 16.2 24 25.5M1018.4 535.7c-1.2-2.6-4.2-4.3-6.2-6.6-3.7-4.1-7.8-8-10.8-12.5-5.7-8.8-11.2-16.9-21.6-21.6a62.7 62.7 0 0 1-32.4-30.8c-1-1.9-3-3.6-5-4.6-7.8-4-15.8-8-23.9-11.5-7.2-3.1-14.7-3.9-22.6-1.7-6.3 1.7-12.8 3-19.3 3.4-14.2.8-28.6-.2-42.7 1.6-14.4 1.9-29 4.9-42.5 10-12.7 4.6-24.4 12.2-36.2 19.2a41.6 41.6 0 0 1-45.7-2.8c-3.7-3-7.6-5.9-11.9-8-7.8-4-15.8-8-24.1-11-16.2-6-32.6-10.4-50.3-6.8-9.5 2-19.5 2-29.2 3-4.8.4-9.8.4-14.2 2.1-15.6 6-31.4 11.7-46.2 19.4-12 6.2-24 13.2-32.8 24.2-5.6 6.9-10.8 14.1-16.9 20.5-23 24.1-36.4 53.6-47 84.6l-.8 3 6.4 1.6c1-4.8 2-9.7 3.6-14.5 4.7-15 10.6-29.3 20.6-41.8 8.7-10.8 15.8-23 25.4-32.8 22.2-22.9 45.5-45 77-54.6 12-3.7 25-4.4 37.4-6.8 18.7-3.5 37-.4 55 3.8 11.9 2.7 23 9.5 34.3 14.7 6.1 2.9 11.7 6.8 17.9 9.6a49.5 49.5 0 0 0 50.9-5c4-2.6 8.1-5 12.5-6.9 14.5-6.2 28.8-13.6 43.8-17.8 11.7-3.3 24.4-3 36.7-3.5 12.5-.5 25-.5 37.5.2 8.6.4 17.6.8 25.4 3.7a76.8 76.8 0 0 1 21 13.9c9.7 8.2 18.3 17.7 30 23.3 2.3 1.1 4.1 3.4 6.1 5.2.7.6 1.2 2 1.9 2.1 11.9 1.5 11.9 13.8 18.2 20.3 3 3 5.7 6 8.3 9.3 4.4 5.7 9.3 11.2 12.8 17.5 3.2 5.6 4.4 12.4 7.2 18.3 2.8 6 4.9 12 6.1 18.2a80 80 0 0 1 7.8 2c-.4-2.1-.9-4.3-1.6-6.4-5.4-16-12.9-31.3-19.9-46.7M469.3 828.4c6.9 9.3 13.7 18.7 20.3 28.3h8.3a95 95 0 0 1-8.6-13c-4.8-8.8-12.2-16.2-17.8-24.7a35 35 0 0 1-5.5-14.3c-.4-2.9-.9-5.7-1.6-8.5l-6.9 1.1h-.2l.5 3a57.8 57.8 0 0 0 11.5 28M514.8 827.5c7.2 12.6 18.8 20.7 30 29.2h3l3-.6c-7-5.8-14.1-11.4-20.2-18-6-6.7-10.3-15.2-14.8-23.2-5-9-9.4-18.4-14.4-27.3h-.4l-5.6 2.3c2.3 4.1 4.6 8.2 6.7 12.3 4.4 8.3 8 17 12.7 25.3M923.8 829.7l-1 1.4c-5.2 8.6-10.6 17.1-15.9 25.6h6.9a251.5 251.5 0 0 0 19.8-32.7c5-10.3 13.5-18.9 20.2-28.3 2.9-4 6-8 8.7-12a61.3 61.3 0 0 1-4.9-4l-5.7 9c-9 14-18.7 27.4-28.1 41"/><path fill="#501936" fill-rule="nonzero" d="M963.3 513c-9.2-6.4-18-13.6-27.6-19.2-5.8-3.4-12.8-4.9-19.4-6.4-4.2-1-8.7-.4-13-.8-4.5-.4-8.9-1.3-13.3-1.6-11.8-.8-23.7-1.7-35.6-2-8.2-.4-16.8-1.4-24.7.4-26.9 5.9-50.7 19.2-73.1 34.6-13.4 9.3-27.7 10.3-41.6 1.7-11.3-7-22.5-14.5-34.6-19.5-21.7-9-43.6-18-67.9-17.3-6.7.4-13.7-.2-20.1 1.5a416.7 416.7 0 0 0-36.4 12.1c-6 2.2-12 4.9-17 8.5-7 5-13.3 11-19.6 16.7-9.6 9-19.3 17.8-28.4 27.2-5 5-9.8 10.7-12.9 17a273 273 0 0 0-9.7 21.5l6.3-1a84.6 84.6 0 0 1 17-31.3c3.3-3.5 7.3-6.3 10.7-9.7 7.7-7.7 14.9-16 23-23.2 6.7-6.2 14-12.1 21.9-16.8 7.7-4.6 16.5-7.2 24.6-11 19-8.7 38.8-9 59-6.9 3.1.4 6.3 1.6 9.4 2.7 17.7 6.5 35.5 12.8 53 19.8 5 1.9 9 6 13.6 8.6 7 4 14.2 7.6 21.3 11.3 1 .5 2.4 1 3.3.8 7.4-2 15.4-3 22-6.6 11.6-6 22.4-13.4 33.3-20.6 12.6-8.3 27-12.8 41.2-16.4 9-2.2 19-.5 28.6-.2 8.9.4 17.7 1.2 26.5 2 7.4.6 14.9 1.4 22.3 2.2 2.1.2 4.3 1.2 6.3.7 9.6-2.3 17.2 2.1 24.8 6.9 6 3.8 12.1 7.4 17.9 11.6 3 2.2 5.4 5.3 8.3 7.9a147.2 147.2 0 0 1 42.2 67.7l2.7-.4c-3.3-9.8-6.8-19.7-10.6-29.4a92 92 0 0 0-33.7-43M640.3 965.7c1.6 2.5 3.3 5 5.4 6.8 12.1 10.2 24.3 20.3 36.7 30.1 12 9.6 24.2 19 36.6 28.1a22 22 0 0 0 11 4c14.4 1 26.6-5.9 35.4-15.7 11.6-13 26.3-21.9 39-33.4 11.4-10.3 24-19.4 34.7-30.4 7.3-7.4 14.3-15.2 21.2-23h-3.2l-3 1.3c-18 20-39 36.7-59.3 54-11.3 9.7-22 20.1-33.3 29.7a79.3 79.3 0 0 1-18.4 11.7c-10 4.5-18.7-1.3-26.3-6.5-11-7.6-20.9-16.5-31.2-25-11.6-9.5-23.3-19-34.7-28.8a38.3 38.3 0 0 1-7.8-9.9c-5.2-9-13.2-14.9-21-21.2l-5-4.3-3.8-1h-4a145.9 145.9 0 0 1 31 33.5"/><path fill="#501936" fill-rule="nonzero" d="M669.5 959.5c0 2 2.9 4.5 5 5.9l45.5 29.8c4.3 2.8 8.4 6 12.8 8.7 5.8 3.3 12.3 3.8 17.5-.2 9.2-6.8 17.7-14.7 26.4-22.1 4-3.5 8.1-7 12.1-10.7 2.1-2 4.3-3.9 6-6.2a249.7 249.7 0 0 1 24.7-30.5l-3.8-1.7c-1 1-2.2 2-3.2 3.2-10.8 11-20.8 22.8-31.8 33.6-9.8 9.8-20.1 19-30.7 27.8-7.7 6.4-11.6 5.2-19-1.4-7.2-6.4-15-12-22.7-17.8-6-4.6-12.7-8.2-18.2-13.3-7.5-7-14-15.2-21.3-22.6l-7-7h-7.7c0 .2.2.2.2.3 7 6.9 15.1 12.8 15.2 24.2M963.6 541.8c-11.1-6.1-22.5-11.8-33.5-18-11.3-6.6-21.2-15.5-33.9-20.3-12.9-4.8-26-5.8-38.9-3.5-15.2 2.8-30 8.6-45.1 12.2-15.3 3.6-27.4 12.9-39.8 21.5-9.5 6.6-18.2 14.3-27.2 21.4-4 3-8.2 3.5-12.5 1.1-4.5-2.5-9.6-4.6-13.2-8-15.4-15.2-34-25.2-52.7-35.5-9.3-5.1-19-7.4-29.3-7.1-7.6.2-15.2 2.5-22.8 2.7-7.6.3-15.2 1-21.3 5.1-7.4 5-15.5 5.2-23.5 7-3.4.9-7 2-10 3.9-6.2 4-11.5 10-18.2 13a47.4 47.4 0 0 0-25.7 22.5c-3 6.4-7 12.5-11.3 18.1l-3 4.1 6-1 .6 1.4c6.7-11.4 14.7-22 22.1-33 1-1.5 2.8-3.4 4.4-3.6 12.4-2 18.6-13.1 28.5-18.8 1.8-1 3.8-2.2 5.8-2.3 12.3-.5 23.4-5.3 35-9.2 11-3.6 22.9-4.8 34.3-7l.2 1.3a57.2 57.2 0 0 1 31.8 8.9c13 7 23.7 16.3 34.8 25.7 9 7.5 18.5 15 30.4 18 4.2 1 7.8.9 11.4-2 8.7-7 18-13.1 26.4-20.5 11.5-10 25.4-15 39-21 20.2-8.9 42.3-9.9 63.4-14.9 1.3-.3 2.8-.5 4 0 7.2 2.4 14.3 5.1 21.4 7.8a33 33 0 0 1 5 2.6c12 7.1 23.6 14.4 35.5 21.3 5.8 3.4 12 6.1 17.8 9.6 2.2 1.3 4.4 3.5 5.3 5.7 4.5 10.9 8.7 21.8 12.8 32.8 1.5 3.7 2.4 7.6 2.8 11.4 1.4-.8 2.7-1.7 4.1-2.4a145 145 0 0 0-15.5-46c-1-2-3.3-3.8-5.4-5M903.4 828.1c-4.5 8.7-8.6 17.8-14.3 25.6l-2.6 3h9c.8-1 1.5-2 2-3 5.5-9.9 11-19.9 15.4-30.4a281.8 281.8 0 0 1 32-60 59.2 59.2 0 0 1-3.2-7c-5 8.3-9.6 16.7-14.2 25-8.4 15.4-16 31.3-24.1 46.8M555.9 833.7c7 7.1 12.8 15.3 19.2 23h7.8c-6.1-7.7-12-15.7-18.3-23.2-6-7.2-13.1-13.5-19.2-20.6-6.9-8-14-16-19.6-25l-1-1.5-4.4.7a201 201 0 0 0 3.8 5.3c10.2 14 19.6 29 31.7 41.3"/><path fill="#501936" fill-rule="nonzero" d="M639.1 539.8c-7.5 0-15 .1-22.5.4-3.1 0-6.5-.2-9.2 1-9.4 4.3-18.7 9-28 13.8-2 1-3.5 3-5.5 3.7-5.5 1.6-11.4 2-16.7 4-16.3 6.4-26.3 17.7-27.6 36.3l-.3 2.6 5.7 3 1.4-11.2c1.2-9 8.3-13.7 14.3-19.2a47 47 0 0 1 24-10.3c4.5-.9 8.7-3 12.6-5.3 5.6-3.3 10.6-7.8 16.3-10.9a27 27 0 0 1 11.5-2.2c5-.2 10 .2 15 1 6.8 1 13.5 2.4 20.2 3.9a93.9 93.9 0 0 1 32.8 15.6h9.6a103 103 0 0 0-25.2-17.1c-9.2-4.1-18-9-28.4-9.1M923 555.2c-8.9-2-15.4-6.4-21.6-12.3-3-2.9-6.8-6.8-10.3-6.9-18-.5-35.7-6.4-54.3-1.4a117.7 117.7 0 0 0-52.3 29h.4l5.8.5c5.7-5.4 12-10.1 19.3-13.9 5.7-2.9 12.2-4.2 18.4-6.1 3.6-1.2 7.5-1.7 11-3 14-5.6 28-4.2 42.2-2 10 1.6 16.6 6.3 21.6 15.3 2 3.6 7.4 6.3 11.8 7.3 10 2.3 18.1 6.3 23.2 13.7l10.7.8a39.9 39.9 0 0 0-26-21M937.8 733.8l-.2.7.2-.3v-.4M870.7 826.1c-3.7 6.2-9 11.4-13.7 17l-11.2 13.6h6.6l1.8-2c7.8-8.1 16.3-15.7 24-24 3.7-4 7.3-8.7 8.9-13.8 4.2-13.6 9.5-26.4 17.2-38l-6.8-.6c-2.6 4.1-5.2 8.2-7.6 12.4-6.7 11.6-12.3 24-19.2 35.4M582 813.4c5.4 5.8 11.4 11.2 16.7 17 7 7.8 13.2 16.2 20.4 23.7l2.5 2.6h6.8c-4.5-5.4-8.4-11.5-13.1-16.8l-29.6-32.6c-8.2-9-16.8-17.6-24.8-26.7l-5.9 1c5.7 7.8 12 15.3 19 22.2 3 3 5 6.6 8 9.6M736 968.4c4 3 7.7 2.6 11.3-1 3.6-3.7 7.3-7.3 11.2-10.8a243 243 0 0 0 20.2-19.9 60.6 60.6 0 0 1-8-.1c-2.6 2.9-5.3 5.8-8.2 8.6-6.6 6.3-14.4 11.4-21.9 16.7-1 .8-3.8.5-5-.3-5.7-4.3-11.3-8.6-16.5-13.5-2.7-2.6-4.8-6-6.5-9.4a32.2 32.2 0 0 0-4.2-6.5h-10c1.7 1.8 3.2 3.7 4.3 5.8 7.8 14.1 21.2 21.4 33.2 30.4M427.8 886.2c0-3.2-2.6-6.4-9.7-6.4h-17.2v13.4h17.9c6.2 0 9-3 9-6.5v-.5zm3.2 31.3c-2.3 0-3.3-3.2-3.6-7.2l-.2-4.5c-.3-4.5-2.1-6.3-10.5-6.3H401v18h-8.4v-44.6H417c13.4 0 19.4 5.3 19.4 12.2 0 5-2.5 9.5-11.2 11.1 8.7.7 10.6 4.7 10.7 9.9v3.7c0 3 .6 5.3 2.8 7.5v.2H431zM467.7 917.5v-44.6h40.5v7h-32.1v11.4h24.7v6.7H476v12.5h32.1v7h-40.5zM559.6 919.2a57 57 0 0 1-24.3-5.7l3-6.7c7.1 3.5 14.5 5.6 21.7 5.6 9.7 0 14-3.2 14-6.6 0-10.6-37.4-3.5-37.4-19.9 0-8.3 9-14.7 23-14.7 8.9 0 17 3.1 22 6.4l-4.5 5.6c-4.1-2.6-11-5.1-17.7-5.1-8.7 0-14.5 3-14.5 6.7 0 9.8 37.5 3.3 37.5 20.2 0 8.7-9.5 14.2-22.8 14.2M636.9 879.8v37.7h-8.4v-37.7H609v-7h47.4v7h-19.5zM699.4 881.6l-9.8 18.7h19.8l-10-18.7zm19.2 35.9l-5.9-11h-26.2l-5.7 11H672l24-44.6h7l24.6 44.6h-9zM774.5 919.2c-16 0-23.5-8.7-23.5-20.3v-26h8.3V899c0 8.2 5.4 13 15.8 13 10.6 0 15-4.8 15-13v-26.2h8.3v26c0 11-7.1 20.3-24 20.3M865.5 886.2c0-3.2-2.6-6.4-9.7-6.4h-17.2v13.4h17.9c6.2 0 9-3 9-6.5v-.5zm3.2 31.3c-2.3 0-3.3-3.2-3.6-7.2l-.2-4.5c-.3-4.5-2.1-6.3-10.5-6.3h-15.8v18h-8.4v-44.6h24.4c13.4 0 19.4 5.3 19.4 12.2 0 5-2.5 9.5-11.2 11.1 8.7.7 10.6 4.7 10.7 9.9v3.7c0 3 .6 5.3 2.8 7.5v.2h-7.6zM929.1 881.6l-9.7 18.7h19.8l-10-18.7zm19.3 35.9l-6-11h-26.1l-5.7 11h-8.9l24.1-44.6h7l24.5 44.6h-9zM1024.5 917.5l-29-30-2.8-3v33h-8.4v-44.6h8l28.2 29.8 2.9 3.2v-33h8.4v44.6h-7.3zM1088 879.8v37.7h-8.4v-37.7H1060v-7h47.4v7H1088zM315.5 820l-26.8-65-33.2 13.6 26.9 65.1-29.6 12.2-65.5-158.7L217 675l27.7 67.2 33.2-13.7-27.8-67.2 29.8-12.3 65.5 158.8-29.8 12.3zM362.7 803.3L319 637.2l79.3-20.8 7 26.7-48.4 12.7 10.8 41.1 33.5-8.7 6.4 24.4-33.5 8.8 12.1 46.1 48.4-12.7 7.3 27.7-79.3 20.8zM484.5 648l-.9 67.2 21.7-3.5-20.8-63.8zm39.9 120.4l-11-32.4-30 4.8-.8 34.4-29.5 4.8 6.6-175.1 35.4-5.7 61.4 164-32.1 5.2z"/><path fill="#501936" fill-rule="nonzero" d="M620.9 624.4c-.7-7.7-4.4-12-12.3-11.4l-17.5 1.4 4 50.3 16.2-1.2c8.2-.7 12.2-5.4 11.5-14.7l-2-24.4zM650 756.6c-12.6 1-18.3-8.9-19.5-23.8l-2.5-32.1c-.7-8-5.3-14.4-14.3-13.6l-16.7 1.3 5.7 71-32 2.5-13.6-171.2 52.7-4.2c23.4-1.9 40.2 10.2 42 34.1l2 24.2c1 12.9-4.1 22.8-17.2 28a26.3 26.3 0 0 1 21.9 24.4l2.5 31.4a24 24 0 0 0 7.6 17l.7 9.5-19.3 1.5zM740.2 610l1.3 143.3-32.2.3-1.3-143.4-31.8.3-.2-28.3 95.4-1 .3 28.4-31.5.3zM905.2 761.4l-28.5-2.2-9.5-102-26 99.3-28.3-2.2-17.2-173.5 31.7 2.4 6.7 114.3 27.7-111.7 24.7 2 8.8 114.4 25.1-111.9 29.6 2.3-44.8 168.8zM1033.4 649c1.7-10-3-17.6-13.3-19.4-10.2-1.8-17.2 3.7-19 13.6l-15.7 88.4c-1.8 9.9 2.9 17.5 13 19.3 10.5 1.9 17.5-3.7 19.2-13.6l15.8-88.3zm-39.9 129.6c-29.4-5.2-44.5-27.8-39.7-54.7l15-84.3c4.7-26.7 26.7-42.7 56.1-37.4 29.7 5.3 44.6 27.8 39.8 54.5l-15 84.3c-4.8 26.9-26.5 43-56.2 37.6M1157.3 679.5c2.8-9.7-1-17.8-11.2-20.7-9.9-3-17.5 1.9-20.3 11.5l-25.1 86.2c-2.8 9.6 1 17.7 10.9 20.6 10.1 3 17.7-1.8 20.5-11.5l25.2-86.1zM1103.7 804c-28.7-8.4-41.3-32.5-33.6-58.7l24-82.2c7.5-26 31-39.6 59.8-31.2 29 8.5 41.3 32.5 33.7 58.5l-24 82.2c-7.6 26.2-31 39.8-59.9 31.4M1278 733.6c5.4-11.2 3.6-19.5-7.1-24.6l-13.8-6.5-50.1 105.2 13.7 6.5c10.7 5.1 18.2 1.3 23.4-9.6l34-71zM1211 840l-44.7-21.3 74-155 44.7 21.3c27.2 13 34 37.7 22.3 62.1l-34.6 72.7c-11.8 24.6-34.5 33.2-61.7 20.2"/></g></svg>