<svg xmlns="http://www.w3.org/2000/svg" xmlns:serif="http://www.serif.com/" fill-rule="evenodd" stroke-linejoin="round" stroke-miterlimit="1.414" clip-rule="evenodd" viewBox="0 0 1126 339"><g serif:id="text alone"><path fill="#fff" fill-rule="nonzero" d="M240.534 305.413c0-3.217-2.613-6.366-9.783-6.366h-17.154v13.402h17.892c6.165 0 9.045-2.948 9.045-6.5v-.536zm3.151 31.295c-2.278 0-3.284-3.149-3.551-7.172l-.269-4.556c-.267-4.421-2.078-6.297-10.454-6.297h-15.814v18.025h-8.377v-44.631h24.324c13.405 0 19.434 5.362 19.434 12.265 0 4.89-2.48 9.515-11.191 11.123 8.711.67 10.588 4.624 10.655 9.85l.068 3.686c.066 3.083.602 5.295 2.747 7.506v.201h-7.572zM280.37 336.707v-44.631h40.541v6.97h-32.165v11.46h24.727v6.766h-24.727v12.464h32.165v6.971H280.37zM372.306 338.451c-9.047 0-17.424-2.48-24.326-5.763l3.084-6.635c7.035 3.483 14.473 5.561 21.645 5.561 9.649 0 13.938-3.149 13.938-6.565 0-10.656-37.394-3.552-37.394-19.905 0-8.308 8.98-14.674 23.121-14.674 8.777 0 16.954 3.081 21.98 6.366l-4.558 5.63c-4.156-2.682-10.99-5.162-17.691-5.162-8.711 0-14.474 2.95-14.474 6.769 0 9.717 37.46 3.217 37.46 20.103 0 8.711-9.516 14.275-22.785 14.275M449.561 299.046v37.661h-8.376v-37.661h-19.502v-6.97h47.378v6.97h-19.5zM512.05 300.79l-9.717 18.763h19.769L512.05 300.79zm19.233 35.918l-5.899-11.058h-26.2l-5.696 11.058h-8.846l24.125-44.631h6.968l24.528 44.631h-8.98zM587.149 338.451c-16.016 0-23.456-8.714-23.456-20.305v-26.069h8.31v26.203c0 8.242 5.429 13.133 15.748 13.133 10.588 0 14.943-4.891 14.943-13.133v-26.203h8.377v26.069c0 11.056-7.104 20.305-23.922 20.305M678.232 305.413c0-3.217-2.614-6.366-9.783-6.366h-17.155v13.402h17.892c6.165 0 9.046-2.948 9.046-6.5v-.536zm3.151 31.295c-2.279 0-3.285-3.149-3.551-7.172l-.27-4.556c-.268-4.421-2.077-6.297-10.454-6.297h-15.814v18.025h-8.376v-44.631h24.324c13.404 0 19.433 5.362 19.433 12.265 0 4.89-2.479 9.515-11.19 11.123 8.711.67 10.587 4.624 10.655 9.85l.068 3.686c.065 3.083.601 5.295 2.747 7.506v.201h-7.572zM741.811 300.79l-9.717 18.763h19.769l-10.052-18.763zm19.233 35.918l-5.898-11.058h-26.201l-5.696 11.058h-8.845l24.125-44.631h6.968l24.527 44.631h-8.98zM837.208 336.707l-29.016-29.888-2.814-3.149v33.037h-8.377v-44.631h8.042l28.144 29.82 2.881 3.217v-33.037h8.376v44.631h-7.236zM900.658 299.046v37.661h-8.376v-37.661H872.78v-6.97h47.377v6.97h-19.499zM128.222 239.277l-26.858-65.081-33.138 13.676 26.859 65.081-29.562 12.201L0 106.381l29.561-12.202 27.744 67.231 33.138-13.677-27.744-67.227 29.799-12.299 65.524 158.774-29.8 12.296zM175.354 222.552l-43.55-166.133 79.326-20.794 6.996 26.692-48.393 12.684 10.788 41.159 33.428-8.761 6.407 24.445-33.425 8.764 12.097 46.147 48.393-12.686 7.258 27.689-79.325 20.794zM297.173 67.133l-.85 67.284 21.64-3.507-20.79-63.777zm39.913 120.507l-11.007-32.442-30.04 4.869-.704 34.339-29.531 4.789 6.63-175.081 35.387-5.735 61.342 164.062-32.077 5.199zM433.547 43.624c-.615-7.709-4.327-12.072-12.295-11.435l-17.481 1.396 4.021 50.383 16.196-1.292c8.226-.656 12.247-5.375 11.507-14.628l-1.948-24.424zm29.177 132.195c-12.596 1.007-18.301-8.886-19.491-23.796l-2.564-32.133c-.636-7.968-5.283-14.324-14.28-13.605l-16.709 1.334 5.662 70.947-31.875 2.544L369.803 9.907 422.5 5.703c23.393-1.868 40.141 10.249 42.049 34.155l1.928 24.163c1.027 12.854-4.128 22.838-17.166 28.017 13.655 2.53 20.984 13.33 21.866 24.383l2.503 31.362c.636 7.967 3.381 13.182 7.564 16.987l.76 9.512-19.28 1.537zM552.878 29.153l1.325 143.387-32.236.297-1.325-143.385-31.721.292-.261-28.367 95.419-.881.26 28.367-31.461.29zM717.932 180.654l-28.541-2.188-9.496-102.115-25.987 99.393-28.285-2.171L608.419 0l31.627 2.425 6.747 114.321L674.5 5.068l24.685 1.894 8.806 114.477L733.126 9.565l29.569 2.27-44.763 168.819zM846.058 68.205c1.765-9.899-2.901-17.541-13.312-19.394-10.153-1.809-17.169 3.753-18.931 13.654l-15.732 88.351c-1.762 9.904 2.902 17.545 13.057 19.351 10.409 1.854 17.424-3.708 19.189-13.609l15.729-88.353zM806.213 197.84c-29.451-5.242-44.55-27.838-39.757-54.75l15.008-84.289c4.746-26.658 26.715-42.654 56.167-37.41 29.703 5.29 44.548 27.839 39.802 54.498l-15.008 84.288c-4.793 26.912-26.508 42.953-56.212 37.663M969.948 98.699c2.816-9.653-1-17.752-11.151-20.713-9.904-2.887-17.475 1.889-20.289 11.543l-25.129 86.153c-2.816 9.655 1.002 17.753 10.902 20.64 10.151 2.961 17.723-1.815 20.538-11.471l25.129-86.152zm-53.537 124.607c-28.717-8.374-41.301-32.461-33.647-58.702l23.973-82.192c7.582-25.995 31.142-39.537 59.858-31.163 28.964 8.451 41.301 32.464 33.719 58.459l-23.972 82.189c-7.655 26.241-30.966 39.858-59.931 31.409M1090.708 152.815c5.331-11.172 3.564-19.444-7.142-24.553l-13.732-6.552-50.196 105.198 13.73 6.553c10.706 5.108 18.248 1.277 23.469-9.662l33.871-70.984zm-67.129 106.548l-44.685-21.323 73.965-155.006 44.686 21.323c27.229 12.996 34.028 37.669 22.367 62.106l-34.649 72.614c-11.774 24.672-34.451 33.28-61.684 20.286"/></g></svg>