<?xml version="1.0" encoding="UTF-8" standalone="no"?>
<!DOCTYPE svg PUBLIC "-//W3C//DTD SVG 1.1//EN" "http://www.w3.org/Graphics/SVG/1.1/DTD/svg11.dtd">
<svg width="100%" height="100%" viewBox="0 0 1126 339" version="1.1" xmlns="http://www.w3.org/2000/svg" xmlns:xlink="http://www.w3.org/1999/xlink" xml:space="preserve" xmlns:serif="http://www.serif.com/" style="fill-rule:evenodd;clip-rule:evenodd;stroke-linejoin:round;stroke-miterlimit:1.41421;">
    <g transform="matrix(1,0,0,1,-187.312,-580.775)">
        <g id="text-alone" serif:id="text alone">
            <g transform="matrix(1,0,0,1,427.846,904.147)">
                <path d="M0,-17.959C0,-21.176 -2.613,-24.325 -9.783,-24.325L-26.937,-24.325L-26.937,-10.923L-9.045,-10.923C-2.88,-10.923 0,-13.871 0,-17.423L0,-17.959ZM3.151,13.336C0.873,13.336 -0.133,10.187 -0.4,6.164L-0.669,1.608C-0.936,-2.813 -2.747,-4.689 -11.123,-4.689L-26.937,-4.689L-26.937,13.336L-35.314,13.336L-35.314,-31.295L-10.99,-31.295C2.415,-31.295 8.444,-25.933 8.444,-19.03C8.444,-14.14 5.964,-9.515 -2.747,-7.907C5.964,-7.237 7.841,-3.283 7.908,1.943L7.976,5.629C8.042,8.712 8.578,10.924 10.723,13.135L10.723,13.336L3.151,13.336Z" style="fill:white;fill-rule:nonzero;"/>
            </g>
            <g transform="matrix(1,0,0,1,467.682,872.851)">
                <path d="M0,44.631L0,0L40.541,0L40.541,6.97L8.376,6.97L8.376,18.43L33.103,18.43L33.103,25.196L8.376,25.196L8.376,37.66L40.541,37.66L40.541,44.631L0,44.631Z" style="fill:white;fill-rule:nonzero;"/>
            </g>
            <g transform="matrix(1,0,0,1,559.618,871.245)">
                <path d="M0,47.981C-9.047,47.981 -17.424,45.501 -24.326,42.218L-21.242,35.583C-14.207,39.066 -6.769,41.144 0.403,41.144C10.052,41.144 14.341,37.995 14.341,34.579C14.341,23.923 -23.053,31.027 -23.053,14.674C-23.053,6.366 -14.073,0 0.068,0C8.845,0 17.022,3.081 22.048,6.366L17.49,11.996C13.334,9.314 6.5,6.834 -0.201,6.834C-8.912,6.834 -14.675,9.784 -14.675,13.603C-14.675,23.32 22.785,16.82 22.785,33.706C22.785,42.417 13.269,47.981 0,47.981" style="fill:white;fill-rule:nonzero;"/>
            </g>
            <g transform="matrix(1,0,0,1,636.873,910.512)">
                <path d="M0,-30.691L0,6.97L-8.376,6.97L-8.376,-30.691L-27.878,-30.691L-27.878,-37.661L19.5,-37.661L19.5,-30.691L0,-30.691Z" style="fill:white;fill-rule:nonzero;"/>
            </g>
            <g transform="matrix(1,0,0,1,699.362,908.77)">
                <path d="M0,-27.205L-9.717,-8.442L10.052,-8.442L0,-27.205ZM19.233,8.713L13.334,-2.345L-12.866,-2.345L-18.562,8.713L-27.408,8.713L-3.283,-35.918L3.685,-35.918L28.213,8.713L19.233,8.713Z" style="fill:white;fill-rule:nonzero;"/>
            </g>
            <g transform="matrix(1,0,0,1,774.461,872.852)">
                <path d="M0,46.374C-16.016,46.374 -23.456,37.66 -23.456,26.069L-23.456,0L-15.146,0L-15.146,26.203C-15.146,34.445 -9.717,39.336 0.602,39.336C11.19,39.336 15.545,34.445 15.545,26.203L15.545,0L23.922,0L23.922,26.069C23.922,37.125 16.818,46.374 0,46.374" style="fill:white;fill-rule:nonzero;"/>
            </g>
            <g transform="matrix(1,0,0,1,865.544,904.147)">
                <path d="M0,-17.959C0,-21.176 -2.614,-24.325 -9.783,-24.325L-26.938,-24.325L-26.938,-10.923L-9.046,-10.923C-2.881,-10.923 0,-13.871 0,-17.423L0,-17.959ZM3.151,13.336C0.872,13.336 -0.134,10.187 -0.4,6.164L-0.67,1.608C-0.938,-2.813 -2.747,-4.689 -11.124,-4.689L-26.938,-4.689L-26.938,13.336L-35.314,13.336L-35.314,-31.295L-10.99,-31.295C2.414,-31.295 8.443,-25.933 8.443,-19.03C8.443,-14.14 5.964,-9.515 -2.747,-7.907C5.964,-7.237 7.84,-3.283 7.908,1.943L7.976,5.629C8.041,8.712 8.577,10.924 10.723,13.135L10.723,13.336L3.151,13.336Z" style="fill:white;fill-rule:nonzero;"/>
            </g>
            <g transform="matrix(1,0,0,1,929.123,908.77)">
                <path d="M0,-27.205L-9.717,-8.442L10.052,-8.442L0,-27.205ZM19.233,8.713L13.335,-2.345L-12.866,-2.345L-18.562,8.713L-27.407,8.713L-3.282,-35.918L3.686,-35.918L28.213,8.713L19.233,8.713Z" style="fill:white;fill-rule:nonzero;"/>
            </g>
            <g transform="matrix(1,0,0,1,1024.52,872.851)">
                <path d="M0,44.631L-29.016,14.743L-31.83,11.594L-31.83,44.631L-40.207,44.631L-40.207,0L-32.165,0L-4.021,29.82L-1.14,33.037L-1.14,0L7.236,0L7.236,44.631L0,44.631Z" style="fill:white;fill-rule:nonzero;"/>
            </g>
            <g transform="matrix(1,0,0,1,1087.97,910.512)">
                <path d="M0,-30.691L0,6.97L-8.376,6.97L-8.376,-30.691L-27.878,-30.691L-27.878,-37.661L19.499,-37.661L19.499,-30.691L0,-30.691Z" style="fill:white;fill-rule:nonzero;"/>
            </g>
            <g transform="matrix(1,0,0,1,315.534,674.859)">
                <path d="M0,145.193L-26.858,80.112L-59.996,93.788L-33.137,158.869L-62.699,171.07L-128.222,12.297L-98.661,0.095L-70.917,67.326L-37.779,53.649L-65.523,-13.578L-35.724,-25.877L29.8,132.897L0,145.193Z" style="fill:white;fill-rule:nonzero;"/>
            </g>
            <g transform="matrix(1,0,0,1,362.666,616.4)">
                <path d="M0,186.927L-43.55,20.794L35.776,0L42.772,26.692L-5.621,39.376L5.167,80.535L38.595,71.774L45.002,96.219L11.577,104.983L23.674,151.13L72.067,138.444L79.325,166.133L0,186.927Z" style="fill:white;fill-rule:nonzero;"/>
            </g>
            <g transform="matrix(1,0,0,1,484.485,731.216)">
                <path d="M0,-83.308L-0.85,-16.024L20.79,-19.531L0,-83.308ZM39.913,37.199L28.906,4.757L-1.134,9.626L-1.838,43.965L-31.369,48.754L-24.739,-126.327L10.648,-132.062L71.99,32L39.913,37.199Z" style="fill:white;fill-rule:nonzero;"/>
            </g>
            <g transform="matrix(1,0,0,1,620.859,722.096)">
                <path d="M0,-97.697C-0.615,-105.406 -4.327,-109.769 -12.295,-109.132L-29.776,-107.736L-25.755,-57.353L-9.559,-58.645C-1.333,-59.301 2.688,-64.02 1.948,-73.273L0,-97.697ZM29.177,34.498C16.581,35.505 10.876,25.612 9.686,10.702L7.122,-21.431C6.486,-29.399 1.839,-35.755 -7.158,-35.036L-23.867,-33.702L-18.205,37.245L-50.08,39.789L-63.744,-131.414L-11.047,-135.618C12.346,-137.486 29.094,-125.369 31.002,-101.463L32.93,-77.3C33.957,-64.446 28.802,-54.462 15.764,-49.283C29.419,-46.753 36.748,-35.953 37.63,-24.9L40.133,6.462C40.769,14.429 43.514,19.644 47.697,23.449L48.457,32.961L29.177,34.498Z" style="fill:white;fill-rule:nonzero;"/>
            </g>
            <g transform="matrix(1,0,0,1,740.19,724.955)">
                <path d="M0,-115.027L1.325,28.36L-30.911,28.657L-32.236,-114.728L-63.957,-114.436L-64.218,-142.803L31.201,-143.684L31.461,-115.317L0,-115.027Z" style="fill:white;fill-rule:nonzero;"/>
            </g>
            <g transform="matrix(1,0,0,1,905.244,580.775)">
                <path d="M0,180.654L-28.541,178.466L-38.037,76.351L-64.024,175.744L-92.309,173.573L-109.513,0L-77.886,2.425L-71.139,116.746L-43.432,5.068L-18.747,6.962L-9.941,121.439L15.194,9.565L44.763,11.835L0,180.654Z" style="fill:white;fill-rule:nonzero;"/>
            </g>
            <g transform="matrix(1,0,0,1,1033.37,731.847)">
                <path d="M0,-82.867C1.765,-92.766 -2.901,-100.408 -13.312,-102.261C-23.465,-104.07 -30.481,-98.508 -32.243,-88.607L-47.975,-0.256C-49.737,9.648 -45.073,17.289 -34.918,19.095C-24.509,20.949 -17.494,15.387 -15.729,5.486L0,-82.867ZM-39.845,46.768C-69.296,41.526 -84.395,18.93 -79.602,-7.982L-64.594,-92.271C-59.848,-118.929 -37.879,-134.925 -8.427,-129.681C21.276,-124.391 36.121,-101.842 31.375,-75.183L16.367,9.105C11.574,36.017 -10.141,52.058 -39.845,46.768" style="fill:white;fill-rule:nonzero;"/>
            </g>
            <g transform="matrix(1,0,0,1,1157.26,756.706)">
                <path d="M0,-77.232C2.816,-86.885 -1,-94.984 -11.151,-97.945C-21.055,-100.832 -28.626,-96.056 -31.44,-86.402L-56.569,-0.249C-59.385,9.406 -55.567,17.504 -45.667,20.391C-35.516,23.352 -27.944,18.576 -25.129,8.92L0,-77.232ZM-53.537,47.375C-82.254,39.001 -94.838,14.914 -87.184,-11.327L-63.211,-93.519C-55.629,-119.514 -32.069,-133.056 -3.353,-124.682C25.611,-116.231 37.948,-92.218 30.366,-66.223L6.394,15.966C-1.261,42.207 -24.572,55.824 -53.537,47.375" style="fill:white;fill-rule:nonzero;"/>
            </g>
            <g transform="matrix(1,0,0,1,1278.02,783.351)">
                <path d="M0,-49.761C5.331,-60.933 3.564,-69.205 -7.142,-74.314L-20.874,-80.866L-71.07,24.332L-57.34,30.885C-46.634,35.993 -39.092,32.162 -33.871,21.223L0,-49.761ZM-67.129,56.787L-111.814,35.464L-37.849,-119.542L6.837,-98.219C34.066,-85.223 40.865,-60.55 29.204,-36.113L-5.445,36.501C-17.219,61.173 -39.896,69.781 -67.129,56.787" style="fill:white;fill-rule:nonzero;"/>
            </g>
        </g>
    </g>
</svg>
