<svg xmlns="http://www.w3.org/2000/svg" xmlns:xlink="http://www.w3.org/1999/xlink" version="1.1" x="0px" y="0px" viewBox="0 0 91 91" style="enable-background:new 0 0 91 91;" xml:space="preserve"><g><path d="M83.2,9.9c-0.5-4.6-3.3-7.7-7.9-8.5c-5.8-0.9-12.3,0-18.1,0.1C44.8,1.8,32.4,2.1,20.1,2.1c-3,0-6-0.1-9,0   c-2,0-4,0.4-4.6,2.6C6,6.2,6.3,8.1,6.3,9.6c0,2,0,4-0.1,5.9C6,24,5.8,32.4,5.6,40.8C5.4,48.9,5.2,57,5.2,65c0,4.1,0,8.9,1,13   c0,0.4,0,0.9,0,1.3c0.6,10.4,11.5,10,19.1,10.2c18.3,0.7,36.6,0.2,54.8-0.4c3.2-0.1,3.2-5.1,0-5c-20.2,0.6-40.9,1.6-61.1,0   c-1.5-0.1-3.2-0.1-4.6-0.6c-1.5-0.5-2.7-1.8-2.9-3.4c-0.3-2,1-3.9,3.3-4.7c5-1.6,10.1-1.1,12.3-1.1c13.2,0,26.4,0.3,39.5,0.5   c4.2,0.1,8.7,0.7,12.8,0.2c4.9-0.6,4.4-5.5,4.3-9.2c-0.1-10.7-0.2-21.5-0.3-32.2C83.4,25.8,84.1,17.6,83.2,9.9z M78.7,68.6   c-0.1,1.6-0.2,1.4-1.6,1.4c-1.7,0-14.2-0.3-18.9-0.4c-10.5-0.2-21.1-0.5-31.6-0.4c-4.6,0-12.1,0-16.6,2.8v-0.1   c0.3-6.8,1.3-64.5,1.3-65c1.8-0.2,48.4-0.5,58.1-0.7c4-0.1,8.5-0.6,8.9,4.6c0,0.6,0,1.2,0,1.8C78.4,15.6,79.1,62.5,78.7,68.6z"></path><path d="M28.4,77.8c-3.5,0.2-7.2,0-10.4,1.2c-0.9,0.3-1.1,1.7,0,2c2.9,0.7,5.7,0.7,8.7,0.8c5,0.1,10,0,15,0c10.5,0,21-0.1,31.5-0.2   c2.4,0,4.8-0.2,7.2-0.2c2,0,2-3.1,0-3.1C63,78.3,45.7,77.3,28.4,77.8z"></path><path d="M66,30.6c1.2,4.2-2.8,7.8-6.6,8.6c-4.1,0.8-9.2-1.7-7.6-6.6c0.6-1.9,2-3.5,3.3-4.9c1.8-1.9,3.2-2.7,5.9-2.7   c2,0,3.7,0.9,5.7,0.9c0.7,0,1.1-0.8,0.8-1.4c-1.8-3.8-8.2-4.8-11.8-3.1c-5,2.4-10,9.8-8.4,15.4c0.3,1,0.7,1.8,1.1,2.6   c-0.8,0.8-1.6,1.6-2.4,2.3c-1.1-1.1-2.2-2.1-3.4-2.9l0,0c3.2-3.3,2.9-7,0.7-10.8c-2.1-3.6-5.3-7.7-9.3-9.2c-0.5-0.2-1,0.1-1.4,0.4   c-0.1,0.1-0.2,0.2-0.2,0.3c-0.7,1.8,1.8,3.5,2.9,4.7c2,2.1,5.8,6.3,5.3,9.4c-0.3,1.7-2.2,3.4-3.8,4.2c-2.3,1-4.4-0.4-6.1-1.8   c-2.7-2.2-5.2-4.5-7.8-6.8c-2.3-2-5.6,1.3-3.3,3.3c3.6,3.1,7.4,7.5,11.8,9.4c3.1,1.3,6,0.8,8.5-0.8c0.8,1.4,1.8,2.6,2.8,3.9   c-1.7,1.6-3.5,3.3-5.2,4.9c-2.2,2.1-5,4.3-6.6,6.9c-0.8,1.3,0.7,2.4,1.9,1.9c2.8-1.2,5.4-3.9,7.7-5.9c1.8-1.5,3.6-3.1,5.3-4.7   c0.3,0.3,0.7,0.7,1,1c3.3,3.4,6.7,6.6,10.1,9.8c2.2,2,5.6-1.3,3.3-3.3c-3.3-3-6.6-6.1-9.8-9.3c-0.4-0.4-0.8-0.9-1.3-1.3   c0.8-0.8,1.7-1.6,2.5-2.4C59.3,47,73,39.9,70.1,29.4C69.4,26.8,65.2,27.9,66,30.6z"></path><path d="M29.9,30c1.6,1.6,3.2,3.8,5.4,4.5c1.2,0.4,2.7-0.9,2.2-2.2c-0.8-2.2-3-3.6-4.7-5.2s-3.6-3.4-5.7-4.4   c-1.1-0.6-2.4,0.6-1.7,1.7C26.4,26.6,28.2,28.4,29.9,30z"></path></g></svg>