<svg id="menu" xmlns="http://www.w3.org/2000/svg" viewBox="0 0 91 91"><path d="M83.2 9.9c-.5-4.6-3.3-7.7-7.9-8.5-5.8-.9-12.3 0-18.1.1-12.4.3-24.8.6-37.1.6-3 0-6-.1-9 0-2 0-4 .4-4.6 2.6-.5 1.5-.2 3.4-.2 4.9 0 2 0 4-.1 5.9-.2 8.5-.4 16.9-.6 25.3-.2 8.1-.4 16.2-.4 24.2 0 4.1 0 8.9 1 13v1.3c.6 10.4 11.5 10 19.1 10.2 18.3.7 36.6.2 54.8-.4 3.2-.1 3.2-5.1 0-5-20.2.6-40.9 1.6-61.1 0-1.5-.1-3.2-.1-4.6-.6-1.5-.5-2.7-1.8-2.9-3.4-.3-2 1-3.9 3.3-4.7 5-1.6 10.1-1.1 12.3-1.1 13.2 0 26.4.3 39.5.5 4.2.1 8.7.7 12.8.2 4.9-.6 4.4-5.5 4.3-9.2l-.3-32.2c0-7.8.7-16-.2-23.7zm-4.5 58.7c-.1 1.6-.2 1.4-1.6 1.4-1.7 0-14.2-.3-18.9-.4-10.5-.2-21.1-.5-31.6-.4-4.6 0-12.1 0-16.6 2.8v-.1c.3-6.8 1.3-64.5 1.3-65 1.8-.2 48.4-.5 58.1-.7 4-.1 8.5-.6 8.9 4.6v1.8c.1 3 .8 49.9.4 56z"/><path d="M28.4 77.8c-3.5.2-7.2 0-10.4 1.2-.9.3-1.1 1.7 0 2 2.9.7 5.7.7 8.7.8 5 .1 10 0 15 0 10.5 0 21-.1 31.5-.2 2.4 0 4.8-.2 7.2-.2 2 0 2-3.1 0-3.1-17.4 0-34.7-1-52-.5zM66 30.6c1.2 4.2-2.8 7.8-6.6 8.6-4.1.8-9.2-1.7-7.6-6.6.6-1.9 2-3.5 3.3-4.9 1.8-1.9 3.2-2.7 5.9-2.7 2 0 3.7.9 5.7.9.7 0 1.1-.8.8-1.4-1.8-3.8-8.2-4.8-11.8-3.1-5 2.4-10 9.8-8.4 15.4.3 1 .7 1.8 1.1 2.6-.8.8-1.6 1.6-2.4 2.3-1.1-1.1-2.2-2.1-3.4-2.9 3.2-3.3 2.9-7 .7-10.8-2.1-3.6-5.3-7.7-9.3-9.2-.5-.2-1 .1-1.4.4-.1.1-.2.2-.2.3-.7 1.8 1.8 3.5 2.9 4.7 2 2.1 5.8 6.3 5.3 9.4-.3 1.7-2.2 3.4-3.8 4.2-2.3 1-4.4-.4-6.1-1.8-2.7-2.2-5.2-4.5-7.8-6.8-2.3-2-5.6 1.3-3.3 3.3 3.6 3.1 7.4 7.5 11.8 9.4 3.1 1.3 6 .8 8.5-.8.8 1.4 1.8 2.6 2.8 3.9-1.7 1.6-3.5 3.3-5.2 4.9-2.2 2.1-5 4.3-6.6 6.9-.8 1.3.7 2.4 1.9 1.9 2.8-1.2 5.4-3.9 7.7-5.9 1.8-1.5 3.6-3.1 5.3-4.7l1 1c3.3 3.4 6.7 6.6 10.1 9.8 2.2 2 5.6-1.3 3.3-3.3-3.3-3-6.6-6.1-9.8-9.3-.4-.4-.8-.9-1.3-1.3.8-.8 1.7-1.6 2.5-2.4C59.3 47 73 39.9 70.1 29.4c-.7-2.6-4.9-1.5-4.1 1.2z"/><path d="M29.9 30c1.6 1.6 3.2 3.8 5.4 4.5 1.2.4 2.7-.9 2.2-2.2-.8-2.2-3-3.6-4.7-5.2s-3.6-3.4-5.7-4.4c-1.1-.6-2.4.6-1.7 1.7 1 2.2 2.8 4 4.5 5.6z"/></svg>